<svg width="200" height="200" viewBox="0 0 200 200" fill="none" xmlns="http://www.w3.org/2000/svg">
<path d="M165.687 85.9291V72.7625L148.333 84.4375H105.071C92.0083 84.4375 81.3208 95.125 81.3208 108.187V142.033C81.3208 155.092 92.0083 165.783 105.071 165.783H157.5C170.562 165.783 181.25 155.096 181.25 142.033V108.187C181.25 98.0041 174.742 89.2874 165.687 85.9291Z" stroke="black" stroke-width="3" stroke-linecap="round" stroke-linejoin="round"/>
<path d="M34.3125 114.071V127.237L51.6667 115.562H94.9292C107.992 115.562 118.679 104.875 118.679 91.8125V57.9708C118.679 44.9083 107.992 34.2208 94.9292 34.2208H42.5C29.4375 34.2208 18.75 44.9083 18.75 57.9708V91.8125C18.75 101.996 25.2583 110.712 34.3125 114.071Z" stroke="black" stroke-width="3" stroke-linecap="round" stroke-linejoin="round"/>
</svg>
