<svg width="200" height="200" viewBox="0 0 200 200" fill="none" xmlns="http://www.w3.org/2000/svg">
<path d="M101.2 176.958C57.9585 176.717 22.9084 142.5 22.9084 100C22.9084 57.5 57.9585 23.0416 101.2 23.0416C128.708 23.0416 152.567 38.2083 166.867 58.0833C173.658 67.5208 179.921 80.8541 175.746 100.908C171.579 120.962 150.979 133.775 139.4 133.775H120.625C104.392 133.775 102.854 149.054 109.646 156.258C116.021 163.021 111.358 177.017 101.2 176.958Z" stroke="black" stroke-width="4" stroke-linecap="round" stroke-linejoin="round"/>
<path d="M66.375 86.8C66.3756 88.5568 66.03 90.2965 65.3581 91.9197C64.6862 93.5429 63.7011 95.0178 62.459 96.2602C61.217 97.5027 59.7424 98.4882 58.1194 99.1607C56.4964 99.8331 54.7568 100.179 53 100.179C49.4516 100.179 46.0486 98.7696 43.5395 96.2605C41.0304 93.7514 39.6208 90.3484 39.6208 86.8C39.6208 83.2516 41.0304 79.8486 43.5395 77.3395C46.0486 74.8304 49.4516 73.4208 53 73.4208C54.7568 73.4208 56.4964 73.7669 58.1194 74.4393C59.7424 75.1118 61.217 76.0973 62.459 77.3398C63.7011 78.5822 64.6862 80.0571 65.3581 81.6803C66.03 83.3035 66.3756 85.0432 66.375 86.8ZM160.363 86.8C160.363 88.5571 160.017 90.2972 159.345 91.9206C158.673 93.5441 157.688 95.0192 156.445 96.2617C155.203 97.5042 153.727 98.4897 152.104 99.1619C150.48 99.834 148.74 100.18 146.983 100.179C145.227 100.18 143.487 99.8342 141.864 99.1623C140.24 98.4903 138.766 97.5052 137.523 96.2632C136.281 95.0212 135.295 93.5465 134.623 91.9235C133.95 90.3005 133.604 88.561 133.604 86.8042C133.603 85.047 133.948 83.3069 134.62 81.6832C135.292 80.0595 136.277 78.5841 137.519 77.3412C138.761 76.0984 140.236 75.1124 141.859 74.4397C143.482 73.7671 145.222 73.4208 146.979 73.4208C148.737 73.4197 150.477 73.765 152.101 74.437C153.725 75.1089 155.201 76.0943 156.444 77.3368C157.687 78.5793 158.672 80.0547 159.345 81.6784C160.017 83.3022 160.363 85.0425 160.363 86.8ZM135.183 52.5708C135.183 56.1192 133.774 59.5223 131.265 62.0313C128.756 64.5404 125.353 65.95 121.804 65.95C118.256 65.95 114.853 64.5404 112.344 62.0313C109.835 59.5223 108.425 56.1192 108.425 52.5708C108.424 50.8137 108.77 49.0737 109.442 47.4502C110.115 45.8267 111.1 44.3516 112.342 43.1091C113.585 41.8666 115.06 40.8812 116.684 40.209C118.307 39.5368 120.047 39.1911 121.804 39.1917C123.561 39.1911 125.301 39.5367 126.924 40.2086C128.547 40.8805 130.022 41.8656 131.264 43.1076C132.507 44.3497 133.492 45.8243 134.165 47.4473C134.837 49.0703 135.183 50.8141 135.183 52.5708ZM91.5542 52.5708C91.5542 56.1181 90.145 59.5201 87.6367 62.0284C85.1284 64.5367 81.7265 65.9458 78.1792 65.9458C75.5327 65.9467 72.9454 65.1626 70.7445 63.6928C68.5437 62.223 66.8282 60.1335 65.8151 57.6886C64.8019 55.2437 64.5366 52.5532 65.0527 49.9575C65.5688 47.3619 66.8432 44.9775 68.7145 43.1062C70.5859 41.2348 72.9702 39.9605 75.5659 39.4444C78.1616 38.9283 80.852 39.1936 83.2969 40.2067C85.7418 41.2199 87.8313 42.9354 89.3011 45.1362C90.7709 47.337 91.555 49.9243 91.5542 52.5708Z" stroke="black" stroke-width="4" stroke-linecap="round" stroke-linejoin="round"/>
</svg>
