<svg xmlns="http://www.w3.org/2000/svg" xmlns:xlink="http://www.w3.org/1999/xlink" width="1143" zoomAndPan="magnify" viewBox="0 0 857.25 809.999993" height="1080" preserveAspectRatio="xMidYMid meet" version="1.0"><path fill="#d9d9d9" d="M 529.941406 1.695312 C 519.988281 19.617188 515.042969 40.230469 515.71875 60.722656 C 516.054688 70.96875 517.792969 81.195312 521.03125 90.929688 C 522.636719 95.753906 524.605469 100.464844 526.929688 104.984375 C 529.335938 109.671875 532.183594 114.105469 534.796875 118.675781 C 537.476562 123.359375 539.949219 128.234375 541.214844 133.511719 C 542.410156 138.503906 542.257812 143.628906 540.996094 148.59375 C 538.558594 158.199219 532.851562 166.5625 528.386719 175.289062 C 524.210938 183.445312 521.28125 191.972656 521.632812 201.242188 C 521.964844 209.910156 524.734375 218.46875 529.4375 225.75 C 534.085938 232.945312 540.675781 238.96875 548.539062 242.460938 C 556.433594 245.972656 565.238281 246.96875 573.765625 245.746094 C 582.277344 244.53125 590.449219 241.074219 597.15625 235.679688 C 604.914062 229.441406 609.53125 220.726562 613.261719 211.667969 C 617.234375 202.015625 620.410156 191.765625 627.152344 183.59375 C 633.304688 176.128906 642.476562 170.046875 652.546875 172.222656 C 657.789062 173.351562 662.382812 176.347656 666.691406 179.410156 C 671.011719 182.472656 675.269531 185.582031 679.789062 188.347656 C 688.558594 193.71875 697.890625 198.136719 707.507812 201.769531 C 727.21875 209.214844 748.023438 213.289062 768.855469 216.015625 C 791.269531 218.949219 813.867188 220.386719 836.398438 222.15625 C 842.5 222.636719 848.601562 223.113281 854.710938 223.589844 C 855.972656 223.6875 855.964844 221.71875 854.710938 221.621094 C 831.613281 219.8125 808.46875 218.28125 785.421875 215.949219 C 764.46875 213.828125 743.503906 210.792969 723.238281 204.917969 C 713.253906 202.023438 703.464844 198.425781 694.101562 193.902344 C 684.703125 189.363281 676.175781 183.730469 667.691406 177.707031 C 663.59375 174.800781 659.257812 172.007812 654.367188 170.648438 C 649.980469 169.429688 645.335938 169.554688 641.027344 171.003906 C 632.300781 173.9375 625.523438 181.273438 620.992188 189.042969 C 615.710938 198.089844 613.015625 208.375 608.417969 217.75 C 604.183594 226.375 598.210938 233.582031 589.761719 238.320312 C 574.3125 246.980469 553.972656 246.441406 540.117188 234.917969 C 526.578125 223.65625 520.171875 204.238281 525.433594 187.289062 C 530.96875 169.457031 547.453125 154.066406 543.355469 134.054688 C 541.253906 123.78125 534.707031 115.167969 529.769531 106.140625 C 524.835938 97.121094 521.4375 87.3125 519.511719 77.222656 C 515.648438 57.003906 517.785156 35.710938 525.164062 16.527344 C 526.992188 11.769531 529.175781 7.15625 531.648438 2.699219 C 532.257812 1.582031 530.5625 0.585938 529.941406 1.695312 Z M 529.941406 1.695312 " fill-opacity="0.15" fill-rule="nonzero"/><path fill="#d9d9d9" d="M 375.769531 2.453125 C 382.542969 30.890625 374.421875 60.308594 373.296875 88.917969 C 372.753906 102.8125 373.789062 116.84375 378.480469 130.027344 C 383.308594 143.578125 391.253906 155.722656 399.921875 167.105469 C 417.320312 189.957031 439.21875 211.375 446.945312 239.902344 C 452.925781 261.984375 447.3125 290.84375 425.347656 302.113281 C 402.179688 314 374.976562 301.972656 350.644531 308.105469 C 339.875 310.824219 331.171875 317.46875 325.136719 326.722656 C 318.992188 336.132812 315.535156 347.003906 311.410156 357.378906 C 307.109375 368.203125 301.921875 378.976562 292.824219 386.609375 C 282.433594 395.332031 268.734375 399.191406 255.441406 400.425781 C 240.128906 401.84375 224.796875 399.691406 209.5625 398.335938 C 194.429688 396.984375 179.414062 396.835938 164.480469 399.925781 C 106.882812 411.832031 65.246094 457.949219 26.734375 498.839844 C 21.355469 504.550781 15.957031 510.230469 10.460938 515.824219 C 9.570312 516.730469 10.964844 518.125 11.855469 517.21875 C 53.183594 475.125 92.292969 424.515625 150.65625 405.632812 C 164.535156 401.144531 178.945312 398.984375 193.53125 399.320312 C 210.285156 399.707031 226.875 402.691406 243.640625 402.863281 C 256.316406 402.996094 269.304688 401.308594 280.984375 396.160156 C 292.097656 391.257812 300.730469 383.113281 306.609375 372.53125 C 317.273438 353.339844 320.011719 326.207031 340.589844 314.246094 C 351.589844 307.855469 364.769531 307.863281 377.097656 308.449219 C 389.648438 309.046875 402.480469 310.519531 414.890625 307.847656 C 426.09375 305.429688 435.671875 299.113281 442.023438 289.546875 C 448.265625 280.152344 451.125 268.675781 451.214844 257.472656 C 451.4375 229.59375 433.59375 205.792969 416.851562 185.136719 C 407.507812 173.609375 397.882812 162.226562 390.140625 149.53125 C 382.34375 136.746094 377.113281 122.910156 375.675781 107.953125 C 372.886719 78.871094 381.335938 50.164062 380.199219 21.101562 C 379.949219 14.648438 379.164062 8.226562 377.667969 1.9375 C 377.375 0.699219 375.472656 1.222656 375.769531 2.453125 Z M 375.769531 2.453125 " fill-opacity="0.15" fill-rule="nonzero"/><path fill="#d9d9d9" d="M 19.050781 808.542969 C 48.355469 785.882812 72.355469 756.515625 88.453125 723.132812 C 96.84375 705.730469 102.609375 687.402344 107.277344 668.691406 C 112.34375 648.390625 116.457031 627.800781 123.242188 607.96875 C 134.96875 573.667969 156.722656 544.019531 186.101562 522.71875 C 214.226562 502.328125 248.601562 489.753906 283.5 489.433594 C 301.460938 489.261719 319.789062 492.351562 336.109375 500.074219 C 352.890625 508.015625 364.816406 520.507812 374.65625 536.003906 C 383.585938 550.058594 391.949219 565.332031 406.722656 574.089844 C 421.640625 582.9375 439.617188 583.292969 456.230469 580.070312 C 495.117188 572.523438 528.027344 543.800781 568.335938 542.4375 C 586.683594 541.816406 603.734375 548.710938 616.648438 561.679688 C 628.304688 573.390625 636.195312 588.355469 642.890625 603.296875 C 649.902344 618.945312 655.695312 635.097656 662.8125 650.703125 C 670.726562 668.054688 679.773438 684.882812 689.847656 701.074219 C 710.03125 733.53125 734.339844 763.441406 761.972656 789.855469 C 768.710938 796.296875 775.65625 802.523438 782.777344 808.546875 C 783.738281 809.363281 785.140625 807.976562 784.171875 807.152344 C 754.136719 781.734375 727.386719 752.503906 704.851562 720.246094 C 693.6875 704.265625 683.554688 687.566406 674.558594 670.269531 C 665.832031 653.503906 658.636719 636.148438 651.527344 618.660156 C 640.175781 590.738281 626.332031 558.230469 596.703125 545.566406 C 558.347656 529.183594 519.835938 555.050781 485.300781 569.054688 C 467.980469 576.078125 448.882812 581.648438 430.011719 579.597656 C 420.59375 578.574219 411.464844 575.359375 403.757812 569.792969 C 396.097656 564.257812 390.273438 556.671875 385.113281 548.847656 C 375.582031 534.402344 367.535156 519.253906 353.597656 508.445312 C 339.851562 497.785156 323.023438 491.65625 305.933594 489.042969 C 238.507812 478.742188 168.539062 517.976562 135.292969 576.09375 C 114.847656 611.84375 111.070312 653.460938 98.707031 692.105469 C 86.988281 728.738281 66.105469 762.171875 38.578125 789.007812 C 31.960938 795.457031 24.972656 801.492188 17.664062 807.144531 C 16.65625 807.921875 18.058594 809.308594 19.050781 808.542969 Z M 19.050781 808.542969 " fill-opacity="0.15" fill-rule="nonzero"/><path fill="#d9d9d9" d="M 855.554688 670.171875 C 844.066406 654.625 831.609375 639.796875 818.230469 625.839844 C 804.789062 611.820312 790.441406 598.664062 775.296875 586.515625 C 760.304688 574.496094 744.417969 563.808594 728.433594 553.171875 C 712.507812 542.570312 696.585938 531.757812 682.554688 518.679688 C 669.28125 506.3125 658.097656 491.878906 651.050781 475.066406 C 644.433594 459.28125 641.441406 441.507812 645.355469 424.648438 C 649.085938 408.59375 659.054688 394.929688 672.359375 385.394531 C 685.558594 375.925781 701.429688 370.316406 717.488281 368.292969 C 737.644531 365.753906 758.164062 368.890625 777.699219 373.882812 C 798.507812 379.199219 818.773438 386.566406 839.113281 393.417969 C 844.226562 395.140625 849.335938 396.863281 854.449219 398.585938 C 855.65625 398.992188 856.171875 397.089844 854.972656 396.6875 C 834.089844 389.648438 813.289062 382.210938 792.175781 375.875 C 771.832031 369.773438 750.765625 365.066406 729.40625 365.480469 C 712.828125 365.804688 696.246094 369.664062 681.542969 377.421875 C 667.5 384.824219 655.253906 396.03125 648.292969 410.449219 C 640.792969 425.972656 640.101562 443.722656 644.117188 460.3125 C 648.246094 477.382812 656.960938 493.292969 668.269531 506.65625 C 680.667969 521.3125 696 533.238281 711.671875 544.171875 C 727.617188 555.300781 744.167969 565.550781 759.832031 577.085938 C 775.828125 588.867188 791.011719 601.753906 805.273438 615.585938 C 819.402344 629.296875 832.632812 643.929688 844.851562 659.371094 C 847.925781 663.25 850.925781 667.1875 853.871094 671.164062 C 854.597656 672.175781 856.308594 671.195312 855.554688 670.171875 Z M 855.554688 670.171875 " fill-opacity="0.15" fill-rule="nonzero"/><path fill="#d9d9d9" d="M 348.910156 2.691406 C 360.109375 24.78125 359.046875 50.988281 356.03125 74.882812 C 352.839844 100.167969 347.679688 126.261719 353.308594 151.589844 C 356.007812 163.722656 361.621094 174.605469 368.148438 185.085938 C 374.421875 195.15625 381.402344 204.945312 386.175781 215.859375 C 394.125 234.03125 395.417969 260.054688 376.082031 271.574219 C 366.921875 277.03125 355.847656 277.757812 345.460938 278.394531 C 335.03125 279.027344 324.324219 279.386719 314.417969 283.035156 C 296.007812 289.816406 283.191406 305.597656 269.953125 319.261719 C 263.09375 326.351562 255.875 333.25 247.4375 338.445312 C 237.066406 344.835938 225.203125 348.023438 213.226562 349.675781 C 200.757812 351.398438 188.140625 351.59375 175.597656 352.425781 C 164.320312 353.175781 153.105469 354.632812 142.039062 356.9375 C 97.261719 366.253906 55.265625 388.460938 22.121094 419.941406 C 18.097656 423.765625 14.214844 427.726562 10.460938 431.8125 C 9.605469 432.746094 10.992188 434.140625 11.855469 433.207031 C 27.617188 416.0625 45.796875 401.21875 65.726562 389.167969 C 85.75 377.058594 107.460938 367.773438 130.082031 361.785156 C 141.390625 358.792969 152.925781 356.613281 164.558594 355.34375 C 176.777344 354.015625 189.074219 353.832031 201.320312 352.886719 C 213.433594 351.953125 225.683594 350.28125 237.050781 345.800781 C 246.714844 341.996094 255.117188 336.089844 262.746094 329.105469 C 277.347656 315.726562 289.246094 298.648438 306.765625 288.753906 C 316.25 283.398438 326.617188 281.625 337.355469 280.867188 C 347.695312 280.140625 358.363281 280.167969 368.355469 277.082031 C 377.65625 274.210938 385.683594 268.175781 389.894531 259.257812 C 394.0625 250.4375 394.402344 240.300781 392.746094 230.824219 C 388.644531 207.320312 371.191406 189.726562 361.269531 168.738281 C 349.769531 144.414062 352.378906 117.195312 355.8125 91.34375 C 359.0625 66.910156 362.878906 41.742188 356.550781 17.449219 C 355.132812 12.003906 353.164062 6.722656 350.621094 1.703125 C 350.039062 0.5625 348.339844 1.558594 348.910156 2.691406 Z M 348.910156 2.691406 " fill-opacity="0.15" fill-rule="nonzero"/><path fill="#d9d9d9" d="M 2.375 388.820312 C 31.71875 364.539062 68.480469 352.703125 104.644531 342.769531 C 141.019531 332.78125 178.09375 324.140625 211.710938 306.464844 C 231.152344 296.242188 249.539062 284.042969 268.128906 272.367188 C 277.832031 266.269531 287.535156 260.171875 297.238281 254.074219 C 304.828125 249.304688 313.175781 244.777344 319.09375 237.875 C 324.96875 231.015625 326.640625 222.566406 325.078125 213.789062 C 323.347656 204.101562 318.769531 195.214844 316.480469 185.675781 C 311.449219 164.714844 321.296875 144.273438 327.4375 124.695312 C 338.839844 88.335938 335.445312 48.242188 318.664062 14.070312 C 316.582031 9.835938 314.292969 5.710938 311.824219 1.699219 C 311.164062 0.617188 309.457031 1.609375 310.121094 2.691406 C 330.222656 35.339844 337.28125 75.871094 328.539062 113.289062 C 323.964844 132.863281 313.816406 151.394531 313.140625 171.78125 C 312.808594 181.726562 315.730469 190.769531 319.003906 200.023438 C 322.109375 208.808594 325.558594 218.511719 322.632812 227.824219 C 319.867188 236.625 311.988281 242.359375 304.574219 247.132812 C 295.394531 253.042969 286.085938 258.761719 276.84375 264.574219 C 258.210938 276.28125 239.769531 288.425781 220.644531 299.324219 C 203.488281 309.105469 185.523438 316.890625 166.78125 323.085938 C 149.160156 328.90625 131.191406 333.570312 113.277344 338.394531 C 78.433594 347.773438 42.757812 357.878906 12.6875 378.585938 C 8.660156 381.359375 4.757812 384.316406 0.992188 387.4375 C 0.00390625 388.238281 1.40625 389.625 2.375 388.820312 Z M 2.375 388.820312 " fill-opacity="0.15" fill-rule="nonzero"/><path fill="#d9d9d9" d="M 272.996094 2.691406 C 291.914062 30.449219 300.882812 64.714844 297.949219 98.1875 C 297.226562 106.445312 295.757812 114.628906 293.554688 122.625 C 291.132812 131.382812 287.597656 139.753906 284.652344 148.335938 C 281.695312 156.964844 279.53125 165.820312 279.746094 174.996094 C 279.964844 184.46875 281.953125 193.886719 280.820312 203.367188 C 278.929688 219.136719 269.714844 233.03125 258.308594 243.660156 C 246.089844 255.046875 230.96875 262.980469 215.40625 268.765625 C 182.792969 280.898438 147.785156 283.964844 114.175781 292.289062 C 80.203125 300.703125 48.171875 315.824219 20.339844 337.089844 C 16.984375 339.65625 13.691406 342.300781 10.460938 345.023438 C 9.492188 345.84375 10.890625 347.230469 11.855469 346.417969 C 39.3125 323.261719 71.660156 306.039062 106.273438 296.402344 C 139.917969 287.035156 175.105469 284.183594 208.363281 273.308594 C 237.917969 263.640625 270.085938 245.570312 280.410156 214.164062 C 283.09375 206.007812 283.480469 197.6875 282.785156 189.183594 C 282.371094 184.128906 281.75 179.085938 281.703125 174.011719 C 281.660156 169.308594 282.234375 164.65625 283.277344 160.074219 C 285.367188 150.921875 289.039062 142.246094 292.175781 133.425781 C 295.066406 125.285156 297.289062 116.953125 298.65625 108.421875 C 303.917969 75.578125 297.519531 41.070312 281.1875 12.121094 C 279.171875 8.558594 277.007812 5.082031 274.699219 1.699219 C 273.988281 0.65625 272.28125 1.640625 272.996094 2.691406 Z M 272.996094 2.691406 " fill-opacity="0.15" fill-rule="nonzero"/><path fill="#d9d9d9" d="M 207.816406 2.886719 C 216.707031 13.730469 225.039062 25.179688 231.171875 37.835938 C 237.519531 50.957031 240.875 65.058594 240.53125 79.667969 C 240.152344 95.835938 236.160156 111.667969 232.65625 127.371094 C 229.058594 143.46875 225.460938 159.570312 221.863281 175.664062 C 218.8125 189.34375 216.53125 204.414062 207.691406 215.78125 C 200.054688 225.605469 188.476562 231.320312 176.621094 234.285156 C 162.777344 237.753906 148.503906 237.410156 134.347656 236.90625 C 118.875 236.359375 103.335938 235.84375 88.160156 239.472656 C 60.417969 246.101562 36.59375 263.546875 17.703125 284.417969 C 15.214844 287.167969 12.804688 289.984375 10.453125 292.851562 C 9.652344 293.824219 11.039062 295.226562 11.847656 294.246094 C 30.398438 271.644531 53.675781 251.945312 82.03125 243.195312 C 89.136719 241 96.449219 239.574219 103.859375 238.945312 C 112 238.257812 120.1875 238.398438 128.347656 238.667969 C 142.898438 239.144531 157.582031 240.035156 171.980469 237.316406 C 183.933594 235.0625 195.871094 230.414062 204.785156 221.910156 C 214.910156 212.25 218.699219 198.742188 221.679688 185.507812 C 225.324219 169.339844 228.910156 153.15625 232.519531 136.980469 C 236.027344 121.28125 240.144531 105.542969 241.84375 89.515625 C 243.433594 74.496094 242.019531 59.640625 236.613281 45.492188 C 231.621094 32.429688 224.019531 20.554688 215.554688 9.492188 C 213.484375 6.789062 211.363281 4.125 209.203125 1.492188 C 208.40625 0.515625 207.019531 1.914062 207.816406 2.886719 Z M 207.816406 2.886719 " fill-opacity="0.15" fill-rule="nonzero"/><path fill="#d9d9d9" d="M 137.578125 2.886719 C 152.402344 18.882812 164.164062 37.699219 172.058594 58.03125 C 176.011719 68.21875 179.011719 78.777344 180.953125 89.53125 C 182.996094 100.839844 184.007812 112.464844 183.089844 123.941406 C 182.191406 135.171875 179.265625 146.394531 173.28125 156.023438 C 168.164062 164.261719 160.933594 171.324219 152.128906 175.511719 C 147.234375 177.84375 141.9375 179.082031 136.539062 179.453125 C 130.253906 179.882812 123.957031 179.304688 117.695312 178.832031 C 106.042969 177.953125 94.417969 178.15625 82.832031 179.753906 C 59.773438 182.9375 37.417969 191.289062 18.027344 204.1875 C 15.523438 205.855469 13.0625 207.601562 10.65625 209.410156 C 9.65625 210.160156 10.636719 211.871094 11.648438 211.109375 C 30.820312 196.699219 53.238281 186.976562 76.832031 182.699219 C 88.414062 180.597656 100.242188 179.828125 111.996094 180.429688 C 124.105469 181.046875 136.585938 183.179688 148.355469 179.160156 C 157.640625 175.992188 165.574219 169.699219 171.53125 161.980469 C 178.179688 153.367188 182.15625 143.074219 184 132.402344 C 186.035156 120.625 185.636719 108.566406 184.066406 96.765625 C 182.605469 85.84375 180.082031 75.074219 176.546875 64.640625 C 169.496094 43.820312 158.523438 24.363281 144.347656 7.5625 C 142.601562 5.5 140.808594 3.476562 138.972656 1.492188 C 138.109375 0.5625 136.71875 1.957031 137.578125 2.886719 Z M 137.578125 2.886719 " fill-opacity="0.15" fill-rule="nonzero"/><path fill="#d9d9d9" d="M 78.382812 2.691406 C 85.425781 13.421875 90.8125 25.214844 94.246094 37.582031 C 95.96875 43.789062 97.214844 50.128906 97.917969 56.53125 C 98.527344 62.082031 98.765625 67.695312 98.089844 73.253906 C 97.460938 78.441406 95.96875 83.644531 93.035156 88.019531 C 89.984375 92.574219 85.410156 95.628906 80.257812 97.359375 C 74.695312 99.226562 68.804688 99.792969 63.019531 100.570312 C 57.039062 101.371094 51.175781 102.59375 45.445312 104.507812 C 33.878906 108.375 23.160156 114.5625 13.859375 122.425781 C 12.707031 123.402344 11.570312 124.40625 10.460938 125.4375 C 9.527344 126.300781 10.925781 127.691406 11.855469 126.832031 C 20.84375 118.515625 31.390625 111.824219 42.871094 107.511719 C 48.644531 105.339844 54.632812 103.78125 60.734375 102.867188 C 66.558594 101.992188 72.46875 101.542969 78.175781 100.039062 C 83.714844 98.578125 88.988281 95.96875 92.78125 91.578125 C 96.269531 87.542969 98.34375 82.503906 99.410156 77.3125 C 100.53125 71.882812 100.667969 66.277344 100.273438 60.761719 C 99.816406 54.347656 98.816406 47.960938 97.335938 41.703125 C 94.347656 29.0625 89.347656 16.878906 82.632812 5.757812 C 81.808594 4.390625 80.953125 3.042969 80.078125 1.707031 C 79.390625 0.640625 77.683594 1.628906 78.382812 2.691406 Z M 78.382812 2.691406 " fill-opacity="0.15" fill-rule="nonzero"/><path fill="#d9d9d9" d="M 579 1.695312 C 570.707031 13.074219 563.121094 25.355469 559.167969 38.980469 C 557.277344 45.488281 556.277344 52.28125 556.484375 59.066406 C 556.707031 66.484375 558.445312 73.734375 560.882812 80.71875 C 563.40625 87.949219 566.574219 94.9375 569.605469 101.957031 C 572.867188 109.507812 576.128906 117.058594 579.390625 124.609375 C 582.402344 131.578125 585.292969 138.613281 588.460938 145.515625 C 590.898438 150.828125 593.773438 156.203125 598.0625 160.265625 C 602.371094 164.347656 607.988281 166.5 613.945312 165.867188 C 621.058594 165.117188 627.402344 161.359375 633.644531 158.160156 C 646.230469 151.699219 660.015625 148.160156 674.105469 147.171875 C 703.117188 145.128906 731.648438 152.96875 758.367188 163.597656 C 786.851562 174.929688 814.109375 189.378906 843.351562 198.777344 C 847.019531 199.957031 850.71875 201.042969 854.441406 202.039062 C 855.667969 202.363281 856.191406 200.464844 854.964844 200.136719 C 825.527344 192.273438 798.269531 178.300781 770.351562 166.425781 C 744.195312 155.308594 716.9375 145.976562 688.277344 144.96875 C 674.628906 144.488281 660.820312 145.949219 647.78125 150.140625 C 641.1875 152.265625 635.046875 155.226562 628.90625 158.398438 C 622.652344 161.625 615.480469 165.207031 608.234375 163.65625 C 595.808594 161.007812 590.863281 146.25 586.445312 136.023438 C 580.179688 121.527344 573.871094 107.050781 567.664062 92.53125 C 564.671875 85.527344 561.800781 78.417969 560.0625 70.984375 C 558.421875 63.976562 557.996094 56.777344 558.914062 49.632812 C 560.699219 35.722656 567.160156 22.859375 574.75 11.253906 C 576.652344 8.34375 578.648438 5.496094 580.695312 2.6875 C 581.449219 1.664062 579.738281 0.683594 579 1.695312 Z M 579 1.695312 " fill-opacity="0.15" fill-rule="nonzero"/><path fill="#d9d9d9" d="M 651.09375 1.496094 C 634.265625 17.308594 610.636719 26.320312 598.207031 46.644531 C 592.816406 55.464844 590.734375 66.011719 593.484375 76.085938 C 596.246094 86.195312 603.160156 94.710938 611.40625 100.957031 C 632.34375 116.804688 660.058594 115.117188 684.894531 114.707031 C 712.238281 114.253906 739.5625 116.464844 766.453125 121.476562 C 793.167969 126.457031 819.386719 134.089844 844.59375 144.246094 C 847.816406 145.542969 851.019531 146.886719 854.203125 148.265625 C 855.355469 148.765625 856.359375 147.070312 855.199219 146.5625 C 830.621094 135.921875 805.039062 127.660156 778.867188 121.972656 C 752.707031 116.292969 725.980469 113.15625 699.210938 112.714844 C 685.832031 112.496094 672.449219 113.320312 659.074219 112.863281 C 646.464844 112.4375 633.363281 110.800781 621.929688 105.136719 C 612.4375 100.4375 603.914062 93.152344 598.757812 83.8125 C 593.652344 74.554688 592.828125 63.785156 596.730469 53.933594 C 600.632812 44.074219 608.46875 36.246094 616.582031 29.695312 C 625.742188 22.300781 635.996094 16.433594 645.222656 9.132812 C 647.726562 7.152344 650.160156 5.074219 652.488281 2.882812 C 653.414062 2.015625 652.019531 0.625 651.09375 1.496094 Z M 651.09375 1.496094 " fill-opacity="0.15" fill-rule="nonzero"/><path fill="#d9d9d9" d="M 709.332031 1.695312 C 705.40625 10.335938 697.949219 16.492188 690.632812 22.21875 C 683.472656 27.828125 676.148438 33.308594 670.910156 40.875 C 666.03125 47.914062 663.09375 56.726562 665.640625 65.207031 C 667.710938 72.09375 673.011719 77.367188 679.199219 80.769531 C 694.976562 89.445312 713.882812 86.585938 730.617188 82.71875 C 740.457031 80.445312 750.175781 77.640625 760.105469 75.765625 C 769.890625 73.917969 779.824219 73.25 789.769531 73.769531 C 809.761719 74.816406 829.386719 80.363281 847.640625 88.421875 C 849.84375 89.394531 852.046875 90.382812 854.199219 91.453125 C 855.332031 92.015625 856.332031 90.320312 855.195312 89.75 C 846.429688 85.394531 837.203125 81.789062 827.859375 78.871094 C 818.476562 75.9375 808.847656 73.785156 799.082031 72.605469 C 789.40625 71.4375 779.601562 71.265625 769.90625 72.316406 C 760.015625 73.382812 750.367188 75.789062 740.742188 78.210938 C 731.046875 80.65625 721.289062 83.136719 711.308594 84.078125 C 703.023438 84.863281 694.691406 84.605469 686.75 81.925781 C 680.109375 79.691406 673.589844 75.769531 669.816406 69.703125 C 665.382812 62.570312 666.039062 53.957031 669.738281 46.65625 C 678.132812 30.078125 696.972656 23.378906 707.574219 8.6875 C 708.929688 6.8125 710.070312 4.796875 711.023438 2.691406 C 711.554688 1.542969 709.855469 0.539062 709.332031 1.695312 Z M 709.332031 1.695312 " fill-opacity="0.15" fill-rule="nonzero"/><path fill="#d9d9d9" d="M 765.464844 1.695312 C 761.640625 7.621094 759.675781 15.046875 760.984375 22.058594 C 761.605469 25.382812 763.066406 28.523438 765.292969 31.074219 C 767.71875 33.851562 771 35.78125 774.488281 36.90625 C 781.839844 39.277344 789.820312 38.410156 797.390625 38.027344 C 806.511719 37.570312 815.679688 38.054688 824.703125 39.484375 C 833.765625 40.921875 842.6875 43.273438 851.285156 46.476562 C 852.339844 46.871094 853.394531 47.273438 854.441406 47.695312 C 854.933594 47.894531 855.523438 47.480469 855.65625 47.007812 C 855.808594 46.449219 855.460938 45.996094 854.964844 45.792969 C 846.585938 42.441406 837.882812 39.894531 829.011719 38.234375 C 820.121094 36.566406 811.058594 35.761719 802.007812 35.902344 C 798.003906 35.964844 794.003906 36.285156 789.996094 36.425781 C 786.292969 36.558594 782.535156 36.566406 778.871094 35.9375 C 775.351562 35.332031 771.890625 34.125 769.042969 31.910156 C 766.503906 29.9375 764.597656 27.25 763.570312 24.203125 C 761.4375 17.855469 762.769531 10.683594 765.863281 4.886719 C 766.265625 4.132812 766.699219 3.398438 767.164062 2.683594 C 767.855469 1.625 766.152344 0.632812 765.464844 1.695312 Z M 765.464844 1.695312 " fill-opacity="0.15" fill-rule="nonzero"/><path fill="#d9d9d9" d="M 855.203125 435.277344 C 842.359375 428.640625 828.777344 423.4375 814.78125 419.824219 C 800.792969 416.210938 786.382812 414.167969 771.933594 413.820312 C 759.535156 413.519531 747.011719 414.296875 734.972656 417.425781 C 724.441406 420.160156 714.0625 424.660156 705.847656 431.929688 C 697.515625 439.308594 692.195312 449.578125 691.660156 460.757812 C 691.070312 473.007812 695.953125 485.054688 703.125 494.792969 C 710.972656 505.445312 721.753906 513.21875 733.339844 519.386719 C 745.65625 525.941406 758.785156 530.753906 771.570312 536.289062 C 784.746094 541.996094 797.5625 548.527344 809.925781 555.828125 C 822.335938 563.152344 834.292969 571.25 845.714844 580.046875 C 848.511719 582.203125 851.277344 584.402344 854.007812 586.644531 C 854.980469 587.441406 856.382812 586.058594 855.402344 585.25 C 844.421875 576.253906 832.917969 567.902344 820.945312 560.277344 C 808.964844 552.648438 796.511719 545.746094 783.683594 539.640625 C 771.210938 533.703125 758.265625 528.882812 745.675781 523.210938 C 733.597656 517.765625 721.511719 511.335938 711.96875 501.988281 C 703.316406 493.519531 696.578125 482.574219 694.324219 470.578125 C 692.230469 459.417969 694.796875 447.84375 701.914062 438.917969 C 708.515625 430.640625 718.011719 425.164062 727.875 421.660156 C 738.738281 417.800781 750.179688 416.207031 761.664062 415.832031 C 775.9375 415.371094 790.25 416.601562 804.246094 419.421875 C 818.195312 422.234375 831.847656 426.601562 844.824219 432.4375 C 847.996094 433.863281 851.125 435.382812 854.214844 436.976562 C 855.332031 437.554688 856.328125 435.855469 855.203125 435.277344 Z M 855.203125 435.277344 " fill-opacity="0.15" fill-rule="nonzero"/><path fill="#d9d9d9" d="M 855.203125 483.183594 C 850.519531 480.746094 845.671875 478.621094 840.695312 476.855469 C 835.699219 475.078125 830.542969 473.546875 825.296875 472.753906 C 820.246094 471.988281 814.96875 471.925781 810.050781 473.464844 C 806.039062 474.71875 802.230469 476.980469 799.496094 480.199219 C 796.738281 483.445312 795.226562 487.539062 795.335938 491.808594 C 795.445312 496.046875 797.007812 500.171875 799.328125 503.6875 C 801.789062 507.421875 805.066406 510.457031 808.847656 512.816406 C 812.984375 515.402344 817.554688 517.214844 822.15625 518.78125 C 826.851562 520.386719 831.628906 521.757812 836.285156 523.46875 C 841.234375 525.285156 846.078125 527.40625 850.777344 529.804688 C 851.929688 530.390625 853.074219 531 854.207031 531.617188 C 855.324219 532.222656 856.316406 530.527344 855.203125 529.914062 C 850.636719 527.425781 845.933594 525.195312 841.113281 523.234375 C 836.53125 521.371094 831.839844 519.847656 827.132812 518.339844 C 818.59375 515.613281 809.457031 512.589844 803.324219 505.683594 C 798.171875 499.878906 795.117188 491.167969 799.238281 483.953125 C 801.222656 480.484375 804.476562 477.929688 808.082031 476.300781 C 812.273438 474.40625 816.960938 473.964844 821.511719 474.289062 C 826.6875 474.660156 831.773438 476.011719 836.703125 477.582031 C 841.542969 479.121094 846.269531 481.003906 850.851562 483.199219 C 851.984375 483.742188 853.101562 484.304688 854.210938 484.882812 C 855.332031 485.46875 856.328125 483.773438 855.203125 483.183594 Z M 855.203125 483.183594 " fill-opacity="0.15" fill-rule="nonzero"/><path fill="#d9d9d9" d="M 118.070312 808.34375 C 152.558594 760.304688 168.925781 702.300781 201.535156 653.175781 C 216.75 630.257812 235.605469 609.945312 259.566406 596.054688 C 281.722656 583.207031 307.988281 575.828125 333.625 580.070312 C 358.691406 584.21875 379.164062 599.808594 400.097656 613.058594 C 410.089844 619.382812 420.441406 625.355469 431.679688 629.183594 C 443.828125 633.328125 456.445312 634.257812 469.109375 632.128906 C 497.605469 627.332031 523.847656 609.847656 553.59375 612.960938 C 566.59375 614.324219 578.199219 620.523438 586.1875 630.898438 C 593.25 640.074219 597.269531 651.203125 600.640625 662.160156 C 604.175781 673.644531 606.988281 685.367188 611.375 696.570312 C 616.152344 708.785156 622.523438 720.304688 629.8125 731.1875 C 644.800781 753.566406 663.371094 773.214844 681.101562 793.390625 C 685.492188 798.386719 689.835938 803.425781 694.085938 808.542969 C 694.898438 809.519531 696.285156 808.117188 695.480469 807.148438 C 677.644531 785.667969 657.976562 765.722656 641.050781 743.488281 C 632.871094 732.75 625.355469 721.457031 619.265625 709.394531 C 613.347656 697.675781 609.414062 685.351562 605.8125 672.769531 C 599.753906 651.617188 592.9375 626.96875 571.714844 616.148438 C 546.082031 603.085938 516.863281 615.621094 491.960938 623.976562 C 477.820312 628.722656 463.0625 632.636719 448.019531 630.925781 C 435.480469 629.503906 423.710938 624.480469 412.785156 618.371094 C 391.332031 606.375 372.136719 589.921875 348.636719 581.835938 C 298.011719 564.40625 244.71875 594.953125 213.378906 633.671875 C 175.988281 679.867188 159.375 738.261719 128.789062 788.542969 C 124.882812 794.960938 120.753906 801.238281 116.371094 807.339844 C 115.625 808.378906 117.335938 809.367188 118.070312 808.34375 Z M 118.070312 808.34375 " fill-opacity="0.15" fill-rule="nonzero"/><path fill="#d9d9d9" d="M 218.953125 808.542969 C 232.609375 794.777344 245.226562 780.003906 256.664062 764.34375 C 262.421875 756.457031 267.875 748.351562 273.007812 740.042969 C 277.222656 733.222656 281.273438 726.296875 285.625 719.558594 C 293.953125 706.675781 303.667969 693.597656 317.367188 686.039062 C 331.015625 678.511719 346.320312 678.96875 360.824219 683.589844 C 388.503906 692.40625 415.75 715.117188 446.386719 707.289062 C 463.300781 702.96875 477.0625 690.929688 494.046875 686.828125 C 510.445312 682.867188 527.035156 688.34375 540.34375 698.074219 C 554.609375 708.5 564.824219 723.097656 572.074219 739.039062 C 580.238281 757.003906 585.210938 776.183594 591.796875 794.738281 C 593.398438 799.242188 595.09375 803.703125 596.9375 808.113281 C 597.417969 809.261719 599.328125 808.757812 598.839844 807.589844 C 584.398438 773.078125 579.246094 732.722656 551.6875 705.246094 C 540.238281 693.828125 525.375 684.871094 508.960938 683.648438 C 500.5 683.023438 492.21875 684.75 484.398438 687.929688 C 476.425781 691.175781 469.007812 695.570312 461.304688 699.371094 C 453.453125 703.246094 445.203125 706.386719 436.378906 706.847656 C 428.78125 707.238281 421.246094 705.863281 414.007812 703.632812 C 399.054688 699.019531 385.394531 691.128906 370.960938 685.21875 C 357.269531 679.617188 342.332031 675.839844 327.65625 679.769531 C 312.8125 683.746094 301.398438 694.621094 292.308594 706.539062 C 281.996094 720.0625 274.085938 735.230469 264.699219 749.378906 C 253.632812 766.054688 241.242188 781.839844 227.691406 796.566406 C 224.386719 800.160156 221.003906 803.683594 217.570312 807.152344 C 216.664062 808.050781 218.058594 809.445312 218.953125 808.542969 Z M 218.953125 808.542969 " fill-opacity="0.15" fill-rule="nonzero"/><path fill="#d9d9d9" d="M 303.976562 808.34375 C 313.75 790.433594 320.515625 767.949219 340.144531 758.175781 C 344.320312 756.09375 348.902344 754.890625 353.578125 754.84375 C 357.796875 754.804688 361.945312 755.675781 365.925781 757.019531 C 374.25 759.824219 381.769531 764.507812 389.65625 768.296875 C 397.164062 771.898438 405.359375 774.90625 413.824219 774.035156 C 422.308594 773.164062 429.632812 768.652344 436.375 763.722656 C 443.304688 758.652344 450.007812 752.816406 458.066406 749.582031 C 467.589844 745.761719 477.949219 747.007812 487.035156 751.46875 C 496.640625 756.183594 504.171875 763.980469 510.699219 772.296875 C 517.949219 781.539062 524.523438 791.351562 531.328125 800.914062 C 533.089844 803.394531 534.855469 805.867188 536.617188 808.34375 C 537.34375 809.371094 539.054688 808.386719 538.320312 807.351562 C 531.183594 797.328125 524.132812 787.246094 516.898438 777.292969 C 510.5625 768.578125 503.691406 759.976562 494.777344 753.75 C 486.367188 747.878906 475.882812 744.164062 465.546875 745.550781 C 456.628906 746.75 449.035156 751.824219 441.980469 757.085938 C 435.050781 762.253906 428.128906 768.089844 419.777344 770.78125 C 411.359375 773.496094 402.824219 771.84375 394.855469 768.496094 C 379.097656 761.875 363.414062 748.914062 345.273438 754.078125 C 335.980469 756.726562 328.230469 763.292969 322.359375 770.773438 C 315.492188 779.527344 311.0625 789.832031 306.195312 799.753906 C 304.9375 802.308594 303.648438 804.847656 302.285156 807.347656 C 301.667969 808.464844 303.371094 809.460938 303.976562 808.34375 Z M 303.976562 808.34375 " fill-opacity="0.15" fill-rule="nonzero"/><path fill="#d9d9d9" d="M 485.066406 1.695312 C 476.535156 21.761719 471.769531 43.34375 471.203125 65.152344 C 470.925781 75.925781 471.675781 86.722656 473.464844 97.347656 C 475.332031 108.453125 478.515625 119.257812 481.4375 130.117188 C 484.40625 141.140625 487.117188 152.3125 487.742188 163.753906 C 488.375 175.367188 487.074219 186.960938 486.777344 198.566406 C 486.511719 208.980469 487.179688 219.445312 490.464844 229.398438 C 493.195312 237.675781 497.433594 245.398438 502.824219 252.242188 C 513.964844 266.378906 530.074219 276.253906 547.894531 279.097656 C 566.457031 282.0625 586.191406 277.890625 601.71875 267.203125 C 616.441406 257.070312 626.28125 241.164062 641.582031 231.800781 C 650.542969 226.320312 660.652344 224.617188 671.011719 226.109375 C 682.195312 227.71875 692.757812 232.09375 703.363281 235.792969 C 746.628906 250.886719 791.832031 260.34375 837.503906 264.039062 C 843.234375 264.503906 848.96875 264.871094 854.707031 265.152344 C 855.972656 265.214844 855.96875 263.246094 854.707031 263.183594 C 809.109375 260.925781 763.828125 252.9375 720.25 239.304688 C 709.578125 235.964844 699.136719 231.992188 688.523438 228.488281 C 678.546875 225.195312 667.945312 222.546875 657.375 223.972656 C 639.265625 226.417969 627.125 240.917969 614.976562 253.105469 C 608.550781 259.558594 601.746094 265.515625 593.632812 269.773438 C 585.058594 274.277344 575.519531 277.003906 565.867188 277.804688 C 547.324219 279.339844 528.867188 273.695312 514.636719 261.648438 C 500.585938 249.75 491.246094 232.761719 489.253906 214.417969 C 488.03125 203.113281 489.082031 191.738281 489.609375 180.429688 C 490.136719 169.175781 489.703125 158.148438 487.535156 147.078125 C 485.378906 136.097656 482.089844 125.390625 479.273438 114.570312 C 476.503906 103.925781 474.417969 93.175781 473.585938 82.195312 C 471.949219 60.5 474.570312 38.53125 481.160156 17.800781 C 482.785156 12.679688 484.65625 7.640625 486.761719 2.691406 C 487.257812 1.535156 485.5625 0.53125 485.066406 1.695312 Z M 485.066406 1.695312 " fill-opacity="0.15" fill-rule="nonzero"/><path fill="#d9d9d9" d="M 429.402344 2.191406 C 423.132812 49.789062 418.996094 98.460938 429.714844 145.757812 C 435.015625 169.125 443.273438 191.679688 451.46875 214.152344 C 459.824219 237.046875 468.09375 259.976562 476.527344 282.847656 C 480.144531 292.652344 484.132812 302.527344 490.933594 310.613281 C 496.679688 317.445312 504.175781 322.707031 512.332031 326.277344 C 529.796875 333.90625 549.34375 334.132812 567.667969 329.75 C 612.078125 319.128906 647.621094 285.191406 693.464844 279.027344 C 717.480469 275.800781 741.761719 279.78125 765.1875 285.046875 C 789.121094 290.429688 812.894531 296.574219 836.722656 302.398438 C 842.625 303.839844 848.53125 305.285156 854.4375 306.726562 C 855.671875 307.027344 856.195312 305.128906 854.960938 304.828125 C 831.082031 298.992188 807.210938 293.144531 783.328125 287.316406 C 760.582031 281.765625 737.496094 276.308594 713.96875 275.929688 C 702.472656 275.742188 690.957031 276.855469 679.796875 279.664062 C 669.214844 282.324219 659.03125 286.351562 649.144531 290.933594 C 628.65625 300.4375 609.386719 312.464844 588.40625 320.921875 C 569.296875 328.628906 548.519531 333.269531 527.996094 329.128906 C 519.136719 327.339844 510.546875 324.035156 503.066406 318.921875 C 494.605469 313.132812 488.441406 305.160156 484.015625 295.972656 C 479.023438 285.59375 475.539062 274.433594 471.597656 263.632812 C 467.449219 252.253906 463.300781 240.882812 459.152344 229.503906 C 450.976562 207.097656 442.378906 184.765625 435.859375 161.804688 C 429.34375 138.863281 425.765625 115.441406 425.113281 91.59375 C 424.460938 67.519531 426.382812 43.449219 429.183594 19.554688 C 429.863281 13.761719 430.597656 7.976562 431.359375 2.195312 C 431.535156 0.9375 429.5625 0.953125 429.402344 2.191406 Z M 429.402344 2.191406 " fill-opacity="0.15" fill-rule="nonzero"/><path fill="#d9d9d9" d="M 855.554688 779.195312 C 835.351562 735.96875 814.3125 692.351562 783.429688 655.554688 C 751.675781 617.726562 710.007812 590.398438 674.414062 556.570312 C 640.261719 524.109375 609.652344 481.839844 610.152344 432.652344 C 610.363281 412.019531 616.957031 391.460938 629.4375 374.949219 C 635.554688 366.851562 643.132812 359.804688 651.855469 354.585938 C 661.75 348.664062 672.960938 345.335938 684.371094 343.996094 C 708.914062 341.117188 733.988281 346.046875 758.089844 350.296875 C 784.144531 354.882812 810.027344 360.445312 835.664062 366.960938 C 841.9375 368.554688 848.195312 370.207031 854.441406 371.910156 C 855.667969 372.246094 856.1875 370.347656 854.964844 370.011719 C 828.902344 362.894531 802.578125 356.746094 776.050781 351.613281 C 762.84375 349.0625 749.582031 346.746094 736.28125 344.703125 C 724.382812 342.878906 712.394531 341.351562 700.34375 341.230469 C 688.535156 341.113281 676.585938 342.375 665.363281 346.203125 C 655.613281 349.523438 646.679688 354.78125 639.007812 361.640625 C 624.019531 375.03125 614.144531 393.808594 610.183594 413.402344 C 600.691406 460.371094 625.089844 506.503906 655.75 540.339844 C 689.457031 577.546875 732.265625 604.855469 767.285156 640.683594 C 801.859375 676.058594 825.257812 719.878906 846.320312 764.171875 C 848.855469 769.496094 851.359375 774.839844 853.859375 780.183594 C 854.390625 781.339844 856.089844 780.339844 855.554688 779.195312 Z M 855.554688 779.195312 " fill-opacity="0.15" fill-rule="nonzero"/><path fill="#d9d9d9" d="M 11.855469 706.960938 C 39.855469 682.167969 53.53125 647.292969 66.308594 613.109375 C 73.203125 594.652344 80.125 576.101562 89.695312 558.828125 C 97.621094 544.511719 107.253906 531.152344 118.265625 519.050781 C 166.074219 466.496094 237.550781 440.808594 307.902344 451.207031 C 326.523438 453.960938 344.828125 459.121094 362.078125 466.675781 C 377.976562 473.636719 392.832031 482.695312 408.007812 491.054688 C 422.882812 499.246094 438.3125 507 454.929688 510.917969 C 471.699219 514.875 488.390625 513.648438 505.097656 509.992188 C 523.542969 505.953125 541.757812 499.695312 560.796875 499.210938 C 578.621094 498.757812 595.800781 504.296875 610.957031 513.46875 C 643.230469 533 663.082031 566.070312 681.644531 597.796875 C 720.59375 664.386719 764.574219 727.746094 814.28125 786.777344 C 820.445312 794.097656 826.695312 801.347656 833.019531 808.539062 C 833.855469 809.492188 835.242188 808.09375 834.414062 807.144531 C 782.066406 747.609375 735.09375 683.398438 694.320312 615.40625 C 675.214844 583.546875 657.929688 548.890625 629.230469 524.332031 C 616.839844 513.726562 602.492188 505.085938 586.738281 500.566406 C 569.835938 495.714844 552.65625 496.925781 535.648438 500.613281 C 516.945312 504.667969 498.484375 511.082031 479.191406 511.558594 C 460.933594 512.011719 443.417969 506.421875 427.074219 498.695312 C 411.046875 491.117188 395.976562 481.71875 380.332031 473.40625 C 364.53125 465.011719 348.023438 458.253906 330.675781 453.792969 C 262.742188 436.308594 189.644531 453.101562 136.386719 498.71875 C 110.617188 520.789062 90.945312 548.402344 77.453125 579.457031 C 62.070312 614.851562 52.664062 653.488281 29.332031 684.90625 C 23.753906 692.417969 17.46875 699.355469 10.464844 705.558594 C 9.511719 706.410156 10.910156 707.800781 11.855469 706.960938 Z M 11.855469 706.960938 " fill-opacity="0.15" fill-rule="nonzero"/><path fill="#d9d9d9" d="M 12.007812 612.214844 C 33.769531 581.585938 55.433594 550.886719 77.300781 520.335938 C 96.953125 492.878906 117.933594 465.492188 146.242188 446.398438 C 205.71875 406.273438 281.652344 406 348.761719 424.097656 C 383.128906 433.363281 415.964844 448.011719 450.972656 454.917969 C 468.46875 458.371094 486.195312 459.054688 503.945312 460.128906 C 513.488281 460.710938 523.046875 461.433594 532.480469 463.039062 C 536.847656 463.777344 541.1875 464.699219 545.46875 465.847656 C 548.359375 466.617188 551.160156 467.789062 554.183594 467.046875 C 558.769531 465.921875 561.90625 461.191406 561.109375 456.542969 C 560.527344 453.125 558.242188 449.738281 556.988281 446.566406 C 555.4375 442.628906 554.152344 438.589844 553.199219 434.464844 C 549.789062 419.710938 551.027344 404.40625 556.25 390.230469 C 566.589844 362.179688 590.527344 340.054688 617.804688 328.710938 C 649.757812 315.414062 685.265625 314.542969 719.277344 317.511719 C 755.945312 320.703125 792.414062 327.515625 827.949219 337.050781 C 836.832031 339.433594 845.660156 342.011719 854.441406 344.75 C 855.65625 345.125 856.175781 343.226562 854.964844 342.847656 C 819.316406 331.726562 782.789062 323.554688 745.78125 318.546875 C 712.253906 314.007812 677.597656 311.390625 644.234375 318.515625 C 614.734375 324.808594 587.527344 339.40625 568.941406 363.574219 C 551.667969 386.035156 544.308594 414.78125 553.308594 442.179688 C 555.386719 448.492188 564.761719 462.445312 553.65625 465.152344 C 549.628906 466.132812 543.898438 463.347656 539.902344 462.476562 C 535.519531 461.519531 531.097656 460.78125 526.652344 460.191406 C 508.390625 457.777344 489.921875 457.863281 471.605469 456.007812 C 434.976562 452.296875 400.925781 438.007812 366.089844 427.113281 C 300.375 406.554688 226.585938 401.375 163.675781 433.792969 C 134.285156 448.941406 111.289062 472.105469 91.289062 498.074219 C 68.8125 527.25 48.164062 557.925781 26.839844 587.945312 C 21.328125 595.703125 15.8125 603.464844 10.300781 611.21875 C 9.570312 612.253906 11.277344 613.238281 12.007812 612.214844 Z M 12.007812 612.214844 " fill-opacity="0.15" fill-rule="nonzero"/><path fill="#d9d9d9" d="M 441.710938 415.085938 C 448.46875 416.238281 455.3125 414.90625 461.777344 412.898438 C 468.648438 410.761719 475.324219 407.964844 482.039062 405.394531 C 489.035156 402.714844 496.03125 400.035156 503.023438 397.359375 C 506.335938 396.09375 509.65625 394.847656 512.960938 393.554688 C 515.5 392.558594 518.046875 391.472656 520.3125 389.925781 C 522.441406 388.476562 524.355469 386.601562 525.417969 384.214844 C 526.5625 381.625 526.6875 378.765625 525.875 376.058594 C 524.136719 370.289062 519.300781 365.875 514.828125 362.136719 C 505.394531 354.257812 495.066406 345.945312 482.488281 344.230469 C 476.347656 343.398438 470.191406 344.300781 464.121094 345.214844 C 458.109375 346.121094 451.902344 347.144531 445.828125 346.195312 C 442.742188 345.714844 439.753906 344.722656 437.027344 343.183594 C 436.320312 342.78125 435.65625 342.324219 434.96875 341.890625 C 434.265625 341.449219 433.339844 341.507812 432.527344 341.457031 C 430.824219 341.359375 429.117188 341.359375 427.410156 341.453125 C 420.628906 341.835938 414.09375 343.753906 408.125 346.988281 C 401.871094 350.378906 396.089844 354.671875 390.207031 358.652344 C 387.097656 360.753906 383.988281 362.859375 380.886719 364.960938 C 378.28125 366.722656 375.667969 368.484375 373.246094 370.496094 C 368.605469 374.347656 364.832031 379.332031 364.253906 385.503906 C 363.738281 391 366.457031 396.21875 371.507812 398.570312 C 376.179688 400.746094 381.640625 400.632812 386.597656 399.648438 C 393.117188 398.363281 399.296875 395.335938 406.027344 395.175781 C 409.035156 395.105469 411.976562 395.703125 414.660156 397.0625 C 416.96875 398.226562 419.03125 399.800781 420.976562 401.492188 C 424.980469 404.976562 428.589844 408.988281 433.132812 411.804688 C 435.75 413.433594 438.667969 414.535156 441.710938 415.085938 C 442.953125 415.308594 443.484375 413.410156 442.234375 413.1875 C 439.234375 412.640625 436.414062 411.5625 433.835938 409.925781 C 431.671875 408.546875 429.71875 406.863281 427.832031 405.132812 C 424.085938 401.703125 420.484375 397.898438 415.9375 395.507812 C 413.421875 394.191406 410.699219 393.414062 407.863281 393.242188 C 404.566406 393.039062 401.261719 393.628906 398.078125 394.4375 C 392.40625 395.878906 386.910156 398.164062 380.984375 398.332031 C 376.375 398.460938 371.183594 397.433594 368.246094 393.535156 C 364.792969 388.945312 365.992188 382.480469 368.957031 377.976562 C 372.3125 372.867188 377.6875 369.5 382.648438 366.140625 C 388.578125 362.125 394.5 358.105469 400.433594 354.105469 C 405.980469 350.367188 411.65625 346.804688 418.152344 344.976562 C 421.308594 344.085938 424.558594 343.5625 427.832031 343.410156 C 429.445312 343.332031 431.054688 343.34375 432.667969 343.441406 C 433.011719 343.460938 433.617188 343.398438 433.945312 343.535156 C 434.144531 343.621094 434.488281 343.945312 434.695312 344.078125 C 435.40625 344.535156 436.132812 344.960938 436.882812 345.351562 C 447.984375 351.113281 460.214844 347.304688 471.890625 346.15625 C 474.847656 345.863281 477.835938 345.746094 480.796875 346.011719 C 483.769531 346.28125 486.699219 346.988281 489.507812 348 C 495.164062 350.023438 500.304688 353.300781 505.105469 356.875 C 507.601562 358.734375 510.019531 360.699219 512.414062 362.691406 C 514.679688 364.574219 516.929688 366.476562 518.9375 368.632812 C 522.535156 372.515625 526.148438 378.132812 523.578125 383.523438 C 521.332031 388.234375 515.871094 390.351562 511.304688 392.097656 C 504.550781 394.683594 497.804688 397.265625 491.050781 399.851562 C 484.351562 402.414062 477.644531 404.984375 470.945312 407.550781 C 464.679688 409.949219 458.292969 412.359375 451.605469 413.25 C 448.503906 413.664062 445.324219 413.722656 442.230469 413.195312 C 440.996094 412.976562 440.464844 414.871094 441.710938 415.085938 Z M 441.710938 415.085938 " fill-opacity="0.15" fill-rule="nonzero"/><path fill="#d9d9d9" d="M 529.941406 1.695312 C 519.988281 19.617188 515.042969 40.230469 515.71875 60.722656 C 516.054688 70.96875 517.792969 81.195312 521.03125 90.929688 C 522.636719 95.753906 524.605469 100.464844 526.929688 104.984375 C 529.335938 109.671875 532.183594 114.105469 534.796875 118.675781 C 537.476562 123.359375 539.949219 128.234375 541.214844 133.511719 C 542.410156 138.503906 542.257812 143.628906 540.996094 148.59375 C 538.558594 158.199219 532.851562 166.5625 528.386719 175.289062 C 524.210938 183.445312 521.28125 191.972656 521.632812 201.242188 C 521.964844 209.910156 524.734375 218.46875 529.4375 225.75 C 534.085938 232.945312 540.675781 238.96875 548.539062 242.460938 C 556.433594 245.972656 565.238281 246.96875 573.765625 245.746094 C 582.277344 244.53125 590.449219 241.074219 597.15625 235.679688 C 604.914062 229.441406 609.53125 220.726562 613.261719 211.667969 C 617.234375 202.015625 620.410156 191.765625 627.152344 183.59375 C 633.304688 176.128906 642.476562 170.046875 652.546875 172.222656 C 657.789062 173.351562 662.382812 176.347656 666.691406 179.410156 C 671.011719 182.472656 675.269531 185.582031 679.789062 188.347656 C 688.558594 193.71875 697.890625 198.136719 707.507812 201.769531 C 727.21875 209.214844 748.023438 213.289062 768.855469 216.015625 C 791.269531 218.949219 813.867188 220.386719 836.398438 222.15625 C 842.5 222.636719 848.601562 223.113281 854.710938 223.589844 C 855.972656 223.6875 855.964844 221.71875 854.710938 221.621094 C 831.613281 219.8125 808.46875 218.28125 785.421875 215.949219 C 764.46875 213.828125 743.503906 210.792969 723.238281 204.917969 C 713.253906 202.023438 703.464844 198.425781 694.101562 193.902344 C 684.703125 189.363281 676.175781 183.730469 667.691406 177.707031 C 663.59375 174.800781 659.257812 172.007812 654.367188 170.648438 C 649.980469 169.429688 645.335938 169.554688 641.027344 171.003906 C 632.300781 173.9375 625.523438 181.273438 620.992188 189.042969 C 615.710938 198.089844 613.015625 208.375 608.417969 217.75 C 604.183594 226.375 598.210938 233.582031 589.761719 238.320312 C 574.3125 246.980469 553.972656 246.441406 540.117188 234.917969 C 526.578125 223.65625 520.171875 204.238281 525.433594 187.289062 C 530.96875 169.457031 547.453125 154.066406 543.355469 134.054688 C 541.253906 123.78125 534.707031 115.167969 529.769531 106.140625 C 524.835938 97.121094 521.4375 87.3125 519.511719 77.222656 C 515.648438 57.003906 517.785156 35.710938 525.164062 16.527344 C 526.992188 11.769531 529.175781 7.15625 531.648438 2.699219 C 532.257812 1.582031 530.5625 0.585938 529.941406 1.695312 Z M 529.941406 1.695312 " fill-opacity="0.15" fill-rule="nonzero"/><path fill="#d9d9d9" d="M 375.769531 2.453125 C 382.542969 30.890625 374.421875 60.308594 373.296875 88.917969 C 372.753906 102.8125 373.789062 116.84375 378.480469 130.027344 C 383.308594 143.578125 391.253906 155.722656 399.921875 167.105469 C 417.320312 189.957031 439.21875 211.375 446.945312 239.902344 C 452.925781 261.984375 447.3125 290.84375 425.347656 302.113281 C 402.179688 314 374.976562 301.972656 350.644531 308.105469 C 339.875 310.824219 331.171875 317.46875 325.136719 326.722656 C 318.992188 336.132812 315.535156 347.003906 311.410156 357.378906 C 307.109375 368.203125 301.921875 378.976562 292.824219 386.609375 C 282.433594 395.332031 268.734375 399.191406 255.441406 400.425781 C 240.128906 401.84375 224.796875 399.691406 209.5625 398.335938 C 194.429688 396.984375 179.414062 396.835938 164.480469 399.925781 C 106.882812 411.832031 65.246094 457.949219 26.734375 498.839844 C 21.355469 504.550781 15.957031 510.230469 10.460938 515.824219 C 9.570312 516.730469 10.964844 518.125 11.855469 517.21875 C 53.183594 475.125 92.292969 424.515625 150.65625 405.632812 C 164.535156 401.144531 178.945312 398.984375 193.53125 399.320312 C 210.285156 399.707031 226.875 402.691406 243.640625 402.863281 C 256.316406 402.996094 269.304688 401.308594 280.984375 396.160156 C 292.097656 391.257812 300.730469 383.113281 306.609375 372.53125 C 317.273438 353.339844 320.011719 326.207031 340.589844 314.246094 C 351.589844 307.855469 364.769531 307.863281 377.097656 308.449219 C 389.648438 309.046875 402.480469 310.519531 414.890625 307.847656 C 426.09375 305.429688 435.671875 299.113281 442.023438 289.546875 C 448.265625 280.152344 451.125 268.675781 451.214844 257.472656 C 451.4375 229.59375 433.59375 205.792969 416.851562 185.136719 C 407.507812 173.609375 397.882812 162.226562 390.140625 149.53125 C 382.34375 136.746094 377.113281 122.910156 375.675781 107.953125 C 372.886719 78.871094 381.335938 50.164062 380.199219 21.101562 C 379.949219 14.648438 379.164062 8.226562 377.667969 1.9375 C 377.375 0.699219 375.472656 1.222656 375.769531 2.453125 Z M 375.769531 2.453125 " fill-opacity="0.15" fill-rule="nonzero"/><path fill="#d9d9d9" d="M 19.050781 808.542969 C 48.355469 785.882812 72.355469 756.515625 88.453125 723.132812 C 96.84375 705.730469 102.609375 687.402344 107.277344 668.691406 C 112.34375 648.390625 116.457031 627.800781 123.242188 607.96875 C 134.96875 573.667969 156.722656 544.019531 186.101562 522.71875 C 214.226562 502.328125 248.601562 489.753906 283.5 489.433594 C 301.460938 489.261719 319.789062 492.351562 336.109375 500.074219 C 352.890625 508.015625 364.816406 520.507812 374.65625 536.003906 C 383.585938 550.058594 391.949219 565.332031 406.722656 574.089844 C 421.640625 582.9375 439.617188 583.292969 456.230469 580.070312 C 495.117188 572.523438 528.027344 543.800781 568.335938 542.4375 C 586.683594 541.816406 603.734375 548.710938 616.648438 561.679688 C 628.304688 573.390625 636.195312 588.355469 642.890625 603.296875 C 649.902344 618.945312 655.695312 635.097656 662.8125 650.703125 C 670.726562 668.054688 679.773438 684.882812 689.847656 701.074219 C 710.03125 733.53125 734.339844 763.441406 761.972656 789.855469 C 768.710938 796.296875 775.65625 802.523438 782.777344 808.546875 C 783.738281 809.363281 785.140625 807.976562 784.171875 807.152344 C 754.136719 781.734375 727.386719 752.503906 704.851562 720.246094 C 693.6875 704.265625 683.554688 687.566406 674.558594 670.269531 C 665.832031 653.503906 658.636719 636.148438 651.527344 618.660156 C 640.175781 590.738281 626.332031 558.230469 596.703125 545.566406 C 558.347656 529.183594 519.835938 555.050781 485.300781 569.054688 C 467.980469 576.078125 448.882812 581.648438 430.011719 579.597656 C 420.59375 578.574219 411.464844 575.359375 403.757812 569.792969 C 396.097656 564.257812 390.273438 556.671875 385.113281 548.847656 C 375.582031 534.402344 367.535156 519.253906 353.597656 508.445312 C 339.851562 497.785156 323.023438 491.65625 305.933594 489.042969 C 238.507812 478.742188 168.539062 517.976562 135.292969 576.09375 C 114.847656 611.84375 111.070312 653.460938 98.707031 692.105469 C 86.988281 728.738281 66.105469 762.171875 38.578125 789.007812 C 31.960938 795.457031 24.972656 801.492188 17.664062 807.144531 C 16.65625 807.921875 18.058594 809.308594 19.050781 808.542969 Z M 19.050781 808.542969 " fill-opacity="0.15" fill-rule="nonzero"/><path fill="#d9d9d9" d="M 855.554688 670.171875 C 844.066406 654.625 831.609375 639.796875 818.230469 625.839844 C 804.789062 611.820312 790.441406 598.664062 775.296875 586.515625 C 760.304688 574.496094 744.417969 563.808594 728.433594 553.171875 C 712.507812 542.570312 696.585938 531.757812 682.554688 518.679688 C 669.28125 506.3125 658.097656 491.878906 651.050781 475.066406 C 644.433594 459.28125 641.441406 441.507812 645.355469 424.648438 C 649.085938 408.59375 659.054688 394.929688 672.359375 385.394531 C 685.558594 375.925781 701.429688 370.316406 717.488281 368.292969 C 737.644531 365.753906 758.164062 368.890625 777.699219 373.882812 C 798.507812 379.199219 818.773438 386.566406 839.113281 393.417969 C 844.226562 395.140625 849.335938 396.863281 854.449219 398.585938 C 855.65625 398.992188 856.171875 397.089844 854.972656 396.6875 C 834.089844 389.648438 813.289062 382.210938 792.175781 375.875 C 771.832031 369.773438 750.765625 365.066406 729.40625 365.480469 C 712.828125 365.804688 696.246094 369.664062 681.542969 377.421875 C 667.5 384.824219 655.253906 396.03125 648.292969 410.449219 C 640.792969 425.972656 640.101562 443.722656 644.117188 460.3125 C 648.246094 477.382812 656.960938 493.292969 668.269531 506.65625 C 680.667969 521.3125 696 533.238281 711.671875 544.171875 C 727.617188 555.300781 744.167969 565.550781 759.832031 577.085938 C 775.828125 588.867188 791.011719 601.753906 805.273438 615.585938 C 819.402344 629.296875 832.632812 643.929688 844.851562 659.371094 C 847.925781 663.25 850.925781 667.1875 853.871094 671.164062 C 854.597656 672.175781 856.308594 671.195312 855.554688 670.171875 Z M 855.554688 670.171875 " fill-opacity="0.15" fill-rule="nonzero"/><path fill="#d9d9d9" d="M 348.910156 2.691406 C 360.109375 24.78125 359.046875 50.988281 356.03125 74.882812 C 352.839844 100.167969 347.679688 126.261719 353.308594 151.589844 C 356.007812 163.722656 361.621094 174.605469 368.148438 185.085938 C 374.421875 195.15625 381.402344 204.945312 386.175781 215.859375 C 394.125 234.03125 395.417969 260.054688 376.082031 271.574219 C 366.921875 277.03125 355.847656 277.757812 345.460938 278.394531 C 335.03125 279.027344 324.324219 279.386719 314.417969 283.035156 C 296.007812 289.816406 283.191406 305.597656 269.953125 319.261719 C 263.09375 326.351562 255.875 333.25 247.4375 338.445312 C 237.066406 344.835938 225.203125 348.023438 213.226562 349.675781 C 200.757812 351.398438 188.140625 351.59375 175.597656 352.425781 C 164.320312 353.175781 153.105469 354.632812 142.039062 356.9375 C 97.261719 366.253906 55.265625 388.460938 22.121094 419.941406 C 18.097656 423.765625 14.214844 427.726562 10.460938 431.8125 C 9.605469 432.746094 10.992188 434.140625 11.855469 433.207031 C 27.617188 416.0625 45.796875 401.21875 65.726562 389.167969 C 85.75 377.058594 107.460938 367.773438 130.082031 361.785156 C 141.390625 358.792969 152.925781 356.613281 164.558594 355.34375 C 176.777344 354.015625 189.074219 353.832031 201.320312 352.886719 C 213.433594 351.953125 225.683594 350.28125 237.050781 345.800781 C 246.714844 341.996094 255.117188 336.089844 262.746094 329.105469 C 277.347656 315.726562 289.246094 298.648438 306.765625 288.753906 C 316.25 283.398438 326.617188 281.625 337.355469 280.867188 C 347.695312 280.140625 358.363281 280.167969 368.355469 277.082031 C 377.65625 274.210938 385.683594 268.175781 389.894531 259.257812 C 394.0625 250.4375 394.402344 240.300781 392.746094 230.824219 C 388.644531 207.320312 371.191406 189.726562 361.269531 168.738281 C 349.769531 144.414062 352.378906 117.195312 355.8125 91.34375 C 359.0625 66.910156 362.878906 41.742188 356.550781 17.449219 C 355.132812 12.003906 353.164062 6.722656 350.621094 1.703125 C 350.039062 0.5625 348.339844 1.558594 348.910156 2.691406 Z M 348.910156 2.691406 " fill-opacity="0.15" fill-rule="nonzero"/><path fill="#d9d9d9" d="M 2.375 388.820312 C 31.71875 364.539062 68.480469 352.703125 104.644531 342.769531 C 141.019531 332.78125 178.09375 324.140625 211.710938 306.464844 C 231.152344 296.242188 249.539062 284.042969 268.128906 272.367188 C 277.832031 266.269531 287.535156 260.171875 297.238281 254.074219 C 304.828125 249.304688 313.175781 244.777344 319.09375 237.875 C 324.96875 231.015625 326.640625 222.566406 325.078125 213.789062 C 323.347656 204.101562 318.769531 195.214844 316.480469 185.675781 C 311.449219 164.714844 321.296875 144.273438 327.4375 124.695312 C 338.839844 88.335938 335.445312 48.242188 318.664062 14.070312 C 316.582031 9.835938 314.292969 5.710938 311.824219 1.699219 C 311.164062 0.617188 309.457031 1.609375 310.121094 2.691406 C 330.222656 35.339844 337.28125 75.871094 328.539062 113.289062 C 323.964844 132.863281 313.816406 151.394531 313.140625 171.78125 C 312.808594 181.726562 315.730469 190.769531 319.003906 200.023438 C 322.109375 208.808594 325.558594 218.511719 322.632812 227.824219 C 319.867188 236.625 311.988281 242.359375 304.574219 247.132812 C 295.394531 253.042969 286.085938 258.761719 276.84375 264.574219 C 258.210938 276.28125 239.769531 288.425781 220.644531 299.324219 C 203.488281 309.105469 185.523438 316.890625 166.78125 323.085938 C 149.160156 328.90625 131.191406 333.570312 113.277344 338.394531 C 78.433594 347.773438 42.757812 357.878906 12.6875 378.585938 C 8.660156 381.359375 4.757812 384.316406 0.992188 387.4375 C 0.00390625 388.238281 1.40625 389.625 2.375 388.820312 Z M 2.375 388.820312 " fill-opacity="0.15" fill-rule="nonzero"/><path fill="#d9d9d9" d="M 272.996094 2.691406 C 291.914062 30.449219 300.882812 64.714844 297.949219 98.1875 C 297.226562 106.445312 295.757812 114.628906 293.554688 122.625 C 291.132812 131.382812 287.597656 139.753906 284.652344 148.335938 C 281.695312 156.964844 279.53125 165.820312 279.746094 174.996094 C 279.964844 184.46875 281.953125 193.886719 280.820312 203.367188 C 278.929688 219.136719 269.714844 233.03125 258.308594 243.660156 C 246.089844 255.046875 230.96875 262.980469 215.40625 268.765625 C 182.792969 280.898438 147.785156 283.964844 114.175781 292.289062 C 80.203125 300.703125 48.171875 315.824219 20.339844 337.089844 C 16.984375 339.65625 13.691406 342.300781 10.460938 345.023438 C 9.492188 345.84375 10.890625 347.230469 11.855469 346.417969 C 39.3125 323.261719 71.660156 306.039062 106.273438 296.402344 C 139.917969 287.035156 175.105469 284.183594 208.363281 273.308594 C 237.917969 263.640625 270.085938 245.570312 280.410156 214.164062 C 283.09375 206.007812 283.480469 197.6875 282.785156 189.183594 C 282.371094 184.128906 281.75 179.085938 281.703125 174.011719 C 281.660156 169.308594 282.234375 164.65625 283.277344 160.074219 C 285.367188 150.921875 289.039062 142.246094 292.175781 133.425781 C 295.066406 125.285156 297.289062 116.953125 298.65625 108.421875 C 303.917969 75.578125 297.519531 41.070312 281.1875 12.121094 C 279.171875 8.558594 277.007812 5.082031 274.699219 1.699219 C 273.988281 0.65625 272.28125 1.640625 272.996094 2.691406 Z M 272.996094 2.691406 " fill-opacity="0.15" fill-rule="nonzero"/><path fill="#d9d9d9" d="M 207.816406 2.886719 C 216.707031 13.730469 225.039062 25.179688 231.171875 37.835938 C 237.519531 50.957031 240.875 65.058594 240.53125 79.667969 C 240.152344 95.835938 236.160156 111.667969 232.65625 127.371094 C 229.058594 143.46875 225.460938 159.570312 221.863281 175.664062 C 218.8125 189.34375 216.53125 204.414062 207.691406 215.78125 C 200.054688 225.605469 188.476562 231.320312 176.621094 234.285156 C 162.777344 237.753906 148.503906 237.410156 134.347656 236.90625 C 118.875 236.359375 103.335938 235.84375 88.160156 239.472656 C 60.417969 246.101562 36.59375 263.546875 17.703125 284.417969 C 15.214844 287.167969 12.804688 289.984375 10.453125 292.851562 C 9.652344 293.824219 11.039062 295.226562 11.847656 294.246094 C 30.398438 271.644531 53.675781 251.945312 82.03125 243.195312 C 89.136719 241 96.449219 239.574219 103.859375 238.945312 C 112 238.257812 120.1875 238.398438 128.347656 238.667969 C 142.898438 239.144531 157.582031 240.035156 171.980469 237.316406 C 183.933594 235.0625 195.871094 230.414062 204.785156 221.910156 C 214.910156 212.25 218.699219 198.742188 221.679688 185.507812 C 225.324219 169.339844 228.910156 153.15625 232.519531 136.980469 C 236.027344 121.28125 240.144531 105.542969 241.84375 89.515625 C 243.433594 74.496094 242.019531 59.640625 236.613281 45.492188 C 231.621094 32.429688 224.019531 20.554688 215.554688 9.492188 C 213.484375 6.789062 211.363281 4.125 209.203125 1.492188 C 208.40625 0.515625 207.019531 1.914062 207.816406 2.886719 Z M 207.816406 2.886719 " fill-opacity="0.15" fill-rule="nonzero"/><path fill="#d9d9d9" d="M 137.578125 2.886719 C 152.402344 18.882812 164.164062 37.699219 172.058594 58.03125 C 176.011719 68.21875 179.011719 78.777344 180.953125 89.53125 C 182.996094 100.839844 184.007812 112.464844 183.089844 123.941406 C 182.191406 135.171875 179.265625 146.394531 173.28125 156.023438 C 168.164062 164.261719 160.933594 171.324219 152.128906 175.511719 C 147.234375 177.84375 141.9375 179.082031 136.539062 179.453125 C 130.253906 179.882812 123.957031 179.304688 117.695312 178.832031 C 106.042969 177.953125 94.417969 178.15625 82.832031 179.753906 C 59.773438 182.9375 37.417969 191.289062 18.027344 204.1875 C 15.523438 205.855469 13.0625 207.601562 10.65625 209.410156 C 9.65625 210.160156 10.636719 211.871094 11.648438 211.109375 C 30.820312 196.699219 53.238281 186.976562 76.832031 182.699219 C 88.414062 180.597656 100.242188 179.828125 111.996094 180.429688 C 124.105469 181.046875 136.585938 183.179688 148.355469 179.160156 C 157.640625 175.992188 165.574219 169.699219 171.53125 161.980469 C 178.179688 153.367188 182.15625 143.074219 184 132.402344 C 186.035156 120.625 185.636719 108.566406 184.066406 96.765625 C 182.605469 85.84375 180.082031 75.074219 176.546875 64.640625 C 169.496094 43.820312 158.523438 24.363281 144.347656 7.5625 C 142.601562 5.5 140.808594 3.476562 138.972656 1.492188 C 138.109375 0.5625 136.71875 1.957031 137.578125 2.886719 Z M 137.578125 2.886719 " fill-opacity="0.15" fill-rule="nonzero"/><path fill="#d9d9d9" d="M 78.382812 2.691406 C 85.425781 13.421875 90.8125 25.214844 94.246094 37.582031 C 95.96875 43.789062 97.214844 50.128906 97.917969 56.53125 C 98.527344 62.082031 98.765625 67.695312 98.089844 73.253906 C 97.460938 78.441406 95.96875 83.644531 93.035156 88.019531 C 89.984375 92.574219 85.410156 95.628906 80.257812 97.359375 C 74.695312 99.226562 68.804688 99.792969 63.019531 100.570312 C 57.039062 101.371094 51.175781 102.59375 45.445312 104.507812 C 33.878906 108.375 23.160156 114.5625 13.859375 122.425781 C 12.707031 123.402344 11.570312 124.40625 10.460938 125.4375 C 9.527344 126.300781 10.925781 127.691406 11.855469 126.832031 C 20.84375 118.515625 31.390625 111.824219 42.871094 107.511719 C 48.644531 105.339844 54.632812 103.78125 60.734375 102.867188 C 66.558594 101.992188 72.46875 101.542969 78.175781 100.039062 C 83.714844 98.578125 88.988281 95.96875 92.78125 91.578125 C 96.269531 87.542969 98.34375 82.503906 99.410156 77.3125 C 100.53125 71.882812 100.667969 66.277344 100.273438 60.761719 C 99.816406 54.347656 98.816406 47.960938 97.335938 41.703125 C 94.347656 29.0625 89.347656 16.878906 82.632812 5.757812 C 81.808594 4.390625 80.953125 3.042969 80.078125 1.707031 C 79.390625 0.640625 77.683594 1.628906 78.382812 2.691406 Z M 78.382812 2.691406 " fill-opacity="0.15" fill-rule="nonzero"/><path fill="#d9d9d9" d="M 579 1.695312 C 570.707031 13.074219 563.121094 25.355469 559.167969 38.980469 C 557.277344 45.488281 556.277344 52.28125 556.484375 59.066406 C 556.707031 66.484375 558.445312 73.734375 560.882812 80.71875 C 563.40625 87.949219 566.574219 94.9375 569.605469 101.957031 C 572.867188 109.507812 576.128906 117.058594 579.390625 124.609375 C 582.402344 131.578125 585.292969 138.613281 588.460938 145.515625 C 590.898438 150.828125 593.773438 156.203125 598.0625 160.265625 C 602.371094 164.347656 607.988281 166.5 613.945312 165.867188 C 621.058594 165.117188 627.402344 161.359375 633.644531 158.160156 C 646.230469 151.699219 660.015625 148.160156 674.105469 147.171875 C 703.117188 145.128906 731.648438 152.96875 758.367188 163.597656 C 786.851562 174.929688 814.109375 189.378906 843.351562 198.777344 C 847.019531 199.957031 850.71875 201.042969 854.441406 202.039062 C 855.667969 202.363281 856.191406 200.464844 854.964844 200.136719 C 825.527344 192.273438 798.269531 178.300781 770.351562 166.425781 C 744.195312 155.308594 716.9375 145.976562 688.277344 144.96875 C 674.628906 144.488281 660.820312 145.949219 647.78125 150.140625 C 641.1875 152.265625 635.046875 155.226562 628.90625 158.398438 C 622.652344 161.625 615.480469 165.207031 608.234375 163.65625 C 595.808594 161.007812 590.863281 146.25 586.445312 136.023438 C 580.179688 121.527344 573.871094 107.050781 567.664062 92.53125 C 564.671875 85.527344 561.800781 78.417969 560.0625 70.984375 C 558.421875 63.976562 557.996094 56.777344 558.914062 49.632812 C 560.699219 35.722656 567.160156 22.859375 574.75 11.253906 C 576.652344 8.34375 578.648438 5.496094 580.695312 2.6875 C 581.449219 1.664062 579.738281 0.683594 579 1.695312 Z M 579 1.695312 " fill-opacity="0.15" fill-rule="nonzero"/><path fill="#d9d9d9" d="M 651.09375 1.496094 C 634.265625 17.308594 610.636719 26.320312 598.207031 46.644531 C 592.816406 55.464844 590.734375 66.011719 593.484375 76.085938 C 596.246094 86.195312 603.160156 94.710938 611.40625 100.957031 C 632.34375 116.804688 660.058594 115.117188 684.894531 114.707031 C 712.238281 114.253906 739.5625 116.464844 766.453125 121.476562 C 793.167969 126.457031 819.386719 134.089844 844.59375 144.246094 C 847.816406 145.542969 851.019531 146.886719 854.203125 148.265625 C 855.355469 148.765625 856.359375 147.070312 855.199219 146.5625 C 830.621094 135.921875 805.039062 127.660156 778.867188 121.972656 C 752.707031 116.292969 725.980469 113.15625 699.210938 112.714844 C 685.832031 112.496094 672.449219 113.320312 659.074219 112.863281 C 646.464844 112.4375 633.363281 110.800781 621.929688 105.136719 C 612.4375 100.4375 603.914062 93.152344 598.757812 83.8125 C 593.652344 74.554688 592.828125 63.785156 596.730469 53.933594 C 600.632812 44.074219 608.46875 36.246094 616.582031 29.695312 C 625.742188 22.300781 635.996094 16.433594 645.222656 9.132812 C 647.726562 7.152344 650.160156 5.074219 652.488281 2.882812 C 653.414062 2.015625 652.019531 0.625 651.09375 1.496094 Z M 651.09375 1.496094 " fill-opacity="0.15" fill-rule="nonzero"/><path fill="#d9d9d9" d="M 709.332031 1.695312 C 705.40625 10.335938 697.949219 16.492188 690.632812 22.21875 C 683.472656 27.828125 676.148438 33.308594 670.910156 40.875 C 666.03125 47.914062 663.09375 56.726562 665.640625 65.207031 C 667.710938 72.09375 673.011719 77.367188 679.199219 80.769531 C 694.976562 89.445312 713.882812 86.585938 730.617188 82.71875 C 740.457031 80.445312 750.175781 77.640625 760.105469 75.765625 C 769.890625 73.917969 779.824219 73.25 789.769531 73.769531 C 809.761719 74.816406 829.386719 80.363281 847.640625 88.421875 C 849.84375 89.394531 852.046875 90.382812 854.199219 91.453125 C 855.332031 92.015625 856.332031 90.320312 855.195312 89.75 C 846.429688 85.394531 837.203125 81.789062 827.859375 78.871094 C 818.476562 75.9375 808.847656 73.785156 799.082031 72.605469 C 789.40625 71.4375 779.601562 71.265625 769.90625 72.316406 C 760.015625 73.382812 750.367188 75.789062 740.742188 78.210938 C 731.046875 80.65625 721.289062 83.136719 711.308594 84.078125 C 703.023438 84.863281 694.691406 84.605469 686.75 81.925781 C 680.109375 79.691406 673.589844 75.769531 669.816406 69.703125 C 665.382812 62.570312 666.039062 53.957031 669.738281 46.65625 C 678.132812 30.078125 696.972656 23.378906 707.574219 8.6875 C 708.929688 6.8125 710.070312 4.796875 711.023438 2.691406 C 711.554688 1.542969 709.855469 0.539062 709.332031 1.695312 Z M 709.332031 1.695312 " fill-opacity="0.15" fill-rule="nonzero"/><path fill="#d9d9d9" d="M 765.464844 1.695312 C 761.640625 7.621094 759.675781 15.046875 760.984375 22.058594 C 761.605469 25.382812 763.066406 28.523438 765.292969 31.074219 C 767.71875 33.851562 771 35.78125 774.488281 36.90625 C 781.839844 39.277344 789.820312 38.410156 797.390625 38.027344 C 806.511719 37.570312 815.679688 38.054688 824.703125 39.484375 C 833.765625 40.921875 842.6875 43.273438 851.285156 46.476562 C 852.339844 46.871094 853.394531 47.273438 854.441406 47.695312 C 854.933594 47.894531 855.523438 47.480469 855.65625 47.007812 C 855.808594 46.449219 855.460938 45.996094 854.964844 45.792969 C 846.585938 42.441406 837.882812 39.894531 829.011719 38.234375 C 820.121094 36.566406 811.058594 35.761719 802.007812 35.902344 C 798.003906 35.964844 794.003906 36.285156 789.996094 36.425781 C 786.292969 36.558594 782.535156 36.566406 778.871094 35.9375 C 775.351562 35.332031 771.890625 34.125 769.042969 31.910156 C 766.503906 29.9375 764.597656 27.25 763.570312 24.203125 C 761.4375 17.855469 762.769531 10.683594 765.863281 4.886719 C 766.265625 4.132812 766.699219 3.398438 767.164062 2.683594 C 767.855469 1.625 766.152344 0.632812 765.464844 1.695312 Z M 765.464844 1.695312 " fill-opacity="0.15" fill-rule="nonzero"/><path fill="#d9d9d9" d="M 855.203125 435.277344 C 842.359375 428.640625 828.777344 423.4375 814.78125 419.824219 C 800.792969 416.210938 786.382812 414.167969 771.933594 413.820312 C 759.535156 413.519531 747.011719 414.296875 734.972656 417.425781 C 724.441406 420.160156 714.0625 424.660156 705.847656 431.929688 C 697.515625 439.308594 692.195312 449.578125 691.660156 460.757812 C 691.070312 473.007812 695.953125 485.054688 703.125 494.792969 C 710.972656 505.445312 721.753906 513.21875 733.339844 519.386719 C 745.65625 525.941406 758.785156 530.753906 771.570312 536.289062 C 784.746094 541.996094 797.5625 548.527344 809.925781 555.828125 C 822.335938 563.152344 834.292969 571.25 845.714844 580.046875 C 848.511719 582.203125 851.277344 584.402344 854.007812 586.644531 C 854.980469 587.441406 856.382812 586.058594 855.402344 585.25 C 844.421875 576.253906 832.917969 567.902344 820.945312 560.277344 C 808.964844 552.648438 796.511719 545.746094 783.683594 539.640625 C 771.210938 533.703125 758.265625 528.882812 745.675781 523.210938 C 733.597656 517.765625 721.511719 511.335938 711.96875 501.988281 C 703.316406 493.519531 696.578125 482.574219 694.324219 470.578125 C 692.230469 459.417969 694.796875 447.84375 701.914062 438.917969 C 708.515625 430.640625 718.011719 425.164062 727.875 421.660156 C 738.738281 417.800781 750.179688 416.207031 761.664062 415.832031 C 775.9375 415.371094 790.25 416.601562 804.246094 419.421875 C 818.195312 422.234375 831.847656 426.601562 844.824219 432.4375 C 847.996094 433.863281 851.125 435.382812 854.214844 436.976562 C 855.332031 437.554688 856.328125 435.855469 855.203125 435.277344 Z M 855.203125 435.277344 " fill-opacity="0.15" fill-rule="nonzero"/><path fill="#d9d9d9" d="M 855.203125 483.183594 C 850.519531 480.746094 845.671875 478.621094 840.695312 476.855469 C 835.699219 475.078125 830.542969 473.546875 825.296875 472.753906 C 820.246094 471.988281 814.96875 471.925781 810.050781 473.464844 C 806.039062 474.71875 802.230469 476.980469 799.496094 480.199219 C 796.738281 483.445312 795.226562 487.539062 795.335938 491.808594 C 795.445312 496.046875 797.007812 500.171875 799.328125 503.6875 C 801.789062 507.421875 805.066406 510.457031 808.847656 512.816406 C 812.984375 515.402344 817.554688 517.214844 822.15625 518.78125 C 826.851562 520.386719 831.628906 521.757812 836.285156 523.46875 C 841.234375 525.285156 846.078125 527.40625 850.777344 529.804688 C 851.929688 530.390625 853.074219 531 854.207031 531.617188 C 855.324219 532.222656 856.316406 530.527344 855.203125 529.914062 C 850.636719 527.425781 845.933594 525.195312 841.113281 523.234375 C 836.53125 521.371094 831.839844 519.847656 827.132812 518.339844 C 818.59375 515.613281 809.457031 512.589844 803.324219 505.683594 C 798.171875 499.878906 795.117188 491.167969 799.238281 483.953125 C 801.222656 480.484375 804.476562 477.929688 808.082031 476.300781 C 812.273438 474.40625 816.960938 473.964844 821.511719 474.289062 C 826.6875 474.660156 831.773438 476.011719 836.703125 477.582031 C 841.542969 479.121094 846.269531 481.003906 850.851562 483.199219 C 851.984375 483.742188 853.101562 484.304688 854.210938 484.882812 C 855.332031 485.46875 856.328125 483.773438 855.203125 483.183594 Z M 855.203125 483.183594 " fill-opacity="0.15" fill-rule="nonzero"/><path fill="#d9d9d9" d="M 118.070312 808.34375 C 152.558594 760.304688 168.925781 702.300781 201.535156 653.175781 C 216.75 630.257812 235.605469 609.945312 259.566406 596.054688 C 281.722656 583.207031 307.988281 575.828125 333.625 580.070312 C 358.691406 584.21875 379.164062 599.808594 400.097656 613.058594 C 410.089844 619.382812 420.441406 625.355469 431.679688 629.183594 C 443.828125 633.328125 456.445312 634.257812 469.109375 632.128906 C 497.605469 627.332031 523.847656 609.847656 553.59375 612.960938 C 566.59375 614.324219 578.199219 620.523438 586.1875 630.898438 C 593.25 640.074219 597.269531 651.203125 600.640625 662.160156 C 604.175781 673.644531 606.988281 685.367188 611.375 696.570312 C 616.152344 708.785156 622.523438 720.304688 629.8125 731.1875 C 644.800781 753.566406 663.371094 773.214844 681.101562 793.390625 C 685.492188 798.386719 689.835938 803.425781 694.085938 808.542969 C 694.898438 809.519531 696.285156 808.117188 695.480469 807.148438 C 677.644531 785.667969 657.976562 765.722656 641.050781 743.488281 C 632.871094 732.75 625.355469 721.457031 619.265625 709.394531 C 613.347656 697.675781 609.414062 685.351562 605.8125 672.769531 C 599.753906 651.617188 592.9375 626.96875 571.714844 616.148438 C 546.082031 603.085938 516.863281 615.621094 491.960938 623.976562 C 477.820312 628.722656 463.0625 632.636719 448.019531 630.925781 C 435.480469 629.503906 423.710938 624.480469 412.785156 618.371094 C 391.332031 606.375 372.136719 589.921875 348.636719 581.835938 C 298.011719 564.40625 244.71875 594.953125 213.378906 633.671875 C 175.988281 679.867188 159.375 738.261719 128.789062 788.542969 C 124.882812 794.960938 120.753906 801.238281 116.371094 807.339844 C 115.625 808.378906 117.335938 809.367188 118.070312 808.34375 Z M 118.070312 808.34375 " fill-opacity="0.15" fill-rule="nonzero"/><path fill="#d9d9d9" d="M 218.953125 808.542969 C 232.609375 794.777344 245.226562 780.003906 256.664062 764.34375 C 262.421875 756.457031 267.875 748.351562 273.007812 740.042969 C 277.222656 733.222656 281.273438 726.296875 285.625 719.558594 C 293.953125 706.675781 303.667969 693.597656 317.367188 686.039062 C 331.015625 678.511719 346.320312 678.96875 360.824219 683.589844 C 388.503906 692.40625 415.75 715.117188 446.386719 707.289062 C 463.300781 702.96875 477.0625 690.929688 494.046875 686.828125 C 510.445312 682.867188 527.035156 688.34375 540.34375 698.074219 C 554.609375 708.5 564.824219 723.097656 572.074219 739.039062 C 580.238281 757.003906 585.210938 776.183594 591.796875 794.738281 C 593.398438 799.242188 595.09375 803.703125 596.9375 808.113281 C 597.417969 809.261719 599.328125 808.757812 598.839844 807.589844 C 584.398438 773.078125 579.246094 732.722656 551.6875 705.246094 C 540.238281 693.828125 525.375 684.871094 508.960938 683.648438 C 500.5 683.023438 492.21875 684.75 484.398438 687.929688 C 476.425781 691.175781 469.007812 695.570312 461.304688 699.371094 C 453.453125 703.246094 445.203125 706.386719 436.378906 706.847656 C 428.78125 707.238281 421.246094 705.863281 414.007812 703.632812 C 399.054688 699.019531 385.394531 691.128906 370.960938 685.21875 C 357.269531 679.617188 342.332031 675.839844 327.65625 679.769531 C 312.8125 683.746094 301.398438 694.621094 292.308594 706.539062 C 281.996094 720.0625 274.085938 735.230469 264.699219 749.378906 C 253.632812 766.054688 241.242188 781.839844 227.691406 796.566406 C 224.386719 800.160156 221.003906 803.683594 217.570312 807.152344 C 216.664062 808.050781 218.058594 809.445312 218.953125 808.542969 Z M 218.953125 808.542969 " fill-opacity="0.15" fill-rule="nonzero"/><path fill="#d9d9d9" d="M 303.976562 808.34375 C 313.75 790.433594 320.515625 767.949219 340.144531 758.175781 C 344.320312 756.09375 348.902344 754.890625 353.578125 754.84375 C 357.796875 754.804688 361.945312 755.675781 365.925781 757.019531 C 374.25 759.824219 381.769531 764.507812 389.65625 768.296875 C 397.164062 771.898438 405.359375 774.90625 413.824219 774.035156 C 422.308594 773.164062 429.632812 768.652344 436.375 763.722656 C 443.304688 758.652344 450.007812 752.816406 458.066406 749.582031 C 467.589844 745.761719 477.949219 747.007812 487.035156 751.46875 C 496.640625 756.183594 504.171875 763.980469 510.699219 772.296875 C 517.949219 781.539062 524.523438 791.351562 531.328125 800.914062 C 533.089844 803.394531 534.855469 805.867188 536.617188 808.34375 C 537.34375 809.371094 539.054688 808.386719 538.320312 807.351562 C 531.183594 797.328125 524.132812 787.246094 516.898438 777.292969 C 510.5625 768.578125 503.691406 759.976562 494.777344 753.75 C 486.367188 747.878906 475.882812 744.164062 465.546875 745.550781 C 456.628906 746.75 449.035156 751.824219 441.980469 757.085938 C 435.050781 762.253906 428.128906 768.089844 419.777344 770.78125 C 411.359375 773.496094 402.824219 771.84375 394.855469 768.496094 C 379.097656 761.875 363.414062 748.914062 345.273438 754.078125 C 335.980469 756.726562 328.230469 763.292969 322.359375 770.773438 C 315.492188 779.527344 311.0625 789.832031 306.195312 799.753906 C 304.9375 802.308594 303.648438 804.847656 302.285156 807.347656 C 301.667969 808.464844 303.371094 809.460938 303.976562 808.34375 Z M 303.976562 808.34375 " fill-opacity="0.15" fill-rule="nonzero"/><path fill="#d9d9d9" d="M 485.066406 1.695312 C 476.535156 21.761719 471.769531 43.34375 471.203125 65.152344 C 470.925781 75.925781 471.675781 86.722656 473.464844 97.347656 C 475.332031 108.453125 478.515625 119.257812 481.4375 130.117188 C 484.40625 141.140625 487.117188 152.3125 487.742188 163.753906 C 488.375 175.367188 487.074219 186.960938 486.777344 198.566406 C 486.511719 208.980469 487.179688 219.445312 490.464844 229.398438 C 493.195312 237.675781 497.433594 245.398438 502.824219 252.242188 C 513.964844 266.378906 530.074219 276.253906 547.894531 279.097656 C 566.457031 282.0625 586.191406 277.890625 601.71875 267.203125 C 616.441406 257.070312 626.28125 241.164062 641.582031 231.800781 C 650.542969 226.320312 660.652344 224.617188 671.011719 226.109375 C 682.195312 227.71875 692.757812 232.09375 703.363281 235.792969 C 746.628906 250.886719 791.832031 260.34375 837.503906 264.039062 C 843.234375 264.503906 848.96875 264.871094 854.707031 265.152344 C 855.972656 265.214844 855.96875 263.246094 854.707031 263.183594 C 809.109375 260.925781 763.828125 252.9375 720.25 239.304688 C 709.578125 235.964844 699.136719 231.992188 688.523438 228.488281 C 678.546875 225.195312 667.945312 222.546875 657.375 223.972656 C 639.265625 226.417969 627.125 240.917969 614.976562 253.105469 C 608.550781 259.558594 601.746094 265.515625 593.632812 269.773438 C 585.058594 274.277344 575.519531 277.003906 565.867188 277.804688 C 547.324219 279.339844 528.867188 273.695312 514.636719 261.648438 C 500.585938 249.75 491.246094 232.761719 489.253906 214.417969 C 488.03125 203.113281 489.082031 191.738281 489.609375 180.429688 C 490.136719 169.175781 489.703125 158.148438 487.535156 147.078125 C 485.378906 136.097656 482.089844 125.390625 479.273438 114.570312 C 476.503906 103.925781 474.417969 93.175781 473.585938 82.195312 C 471.949219 60.5 474.570312 38.53125 481.160156 17.800781 C 482.785156 12.679688 484.65625 7.640625 486.761719 2.691406 C 487.257812 1.535156 485.5625 0.53125 485.066406 1.695312 Z M 485.066406 1.695312 " fill-opacity="0.15" fill-rule="nonzero"/><path fill="#d9d9d9" d="M 429.402344 2.191406 C 423.132812 49.789062 418.996094 98.460938 429.714844 145.757812 C 435.015625 169.125 443.273438 191.679688 451.46875 214.152344 C 459.824219 237.046875 468.09375 259.976562 476.527344 282.847656 C 480.144531 292.652344 484.132812 302.527344 490.933594 310.613281 C 496.679688 317.445312 504.175781 322.707031 512.332031 326.277344 C 529.796875 333.90625 549.34375 334.132812 567.667969 329.75 C 612.078125 319.128906 647.621094 285.191406 693.464844 279.027344 C 717.480469 275.800781 741.761719 279.78125 765.1875 285.046875 C 789.121094 290.429688 812.894531 296.574219 836.722656 302.398438 C 842.625 303.839844 848.53125 305.285156 854.4375 306.726562 C 855.671875 307.027344 856.195312 305.128906 854.960938 304.828125 C 831.082031 298.992188 807.210938 293.144531 783.328125 287.316406 C 760.582031 281.765625 737.496094 276.308594 713.96875 275.929688 C 702.472656 275.742188 690.957031 276.855469 679.796875 279.664062 C 669.214844 282.324219 659.03125 286.351562 649.144531 290.933594 C 628.65625 300.4375 609.386719 312.464844 588.40625 320.921875 C 569.296875 328.628906 548.519531 333.269531 527.996094 329.128906 C 519.136719 327.339844 510.546875 324.035156 503.066406 318.921875 C 494.605469 313.132812 488.441406 305.160156 484.015625 295.972656 C 479.023438 285.59375 475.539062 274.433594 471.597656 263.632812 C 467.449219 252.253906 463.300781 240.882812 459.152344 229.503906 C 450.976562 207.097656 442.378906 184.765625 435.859375 161.804688 C 429.34375 138.863281 425.765625 115.441406 425.113281 91.59375 C 424.460938 67.519531 426.382812 43.449219 429.183594 19.554688 C 429.863281 13.761719 430.597656 7.976562 431.359375 2.195312 C 431.535156 0.9375 429.5625 0.953125 429.402344 2.191406 Z M 429.402344 2.191406 " fill-opacity="0.15" fill-rule="nonzero"/><path fill="#d9d9d9" d="M 855.554688 779.195312 C 835.351562 735.96875 814.3125 692.351562 783.429688 655.554688 C 751.675781 617.726562 710.007812 590.398438 674.414062 556.570312 C 640.261719 524.109375 609.652344 481.839844 610.152344 432.652344 C 610.363281 412.019531 616.957031 391.460938 629.4375 374.949219 C 635.554688 366.851562 643.132812 359.804688 651.855469 354.585938 C 661.75 348.664062 672.960938 345.335938 684.371094 343.996094 C 708.914062 341.117188 733.988281 346.046875 758.089844 350.296875 C 784.144531 354.882812 810.027344 360.445312 835.664062 366.960938 C 841.9375 368.554688 848.195312 370.207031 854.441406 371.910156 C 855.667969 372.246094 856.1875 370.347656 854.964844 370.011719 C 828.902344 362.894531 802.578125 356.746094 776.050781 351.613281 C 762.84375 349.0625 749.582031 346.746094 736.28125 344.703125 C 724.382812 342.878906 712.394531 341.351562 700.34375 341.230469 C 688.535156 341.113281 676.585938 342.375 665.363281 346.203125 C 655.613281 349.523438 646.679688 354.78125 639.007812 361.640625 C 624.019531 375.03125 614.144531 393.808594 610.183594 413.402344 C 600.691406 460.371094 625.089844 506.503906 655.75 540.339844 C 689.457031 577.546875 732.265625 604.855469 767.285156 640.683594 C 801.859375 676.058594 825.257812 719.878906 846.320312 764.171875 C 848.855469 769.496094 851.359375 774.839844 853.859375 780.183594 C 854.390625 781.339844 856.089844 780.339844 855.554688 779.195312 Z M 855.554688 779.195312 " fill-opacity="0.15" fill-rule="nonzero"/><path fill="#d9d9d9" d="M 11.855469 706.960938 C 39.855469 682.167969 53.53125 647.292969 66.308594 613.109375 C 73.203125 594.652344 80.125 576.101562 89.695312 558.828125 C 97.621094 544.511719 107.253906 531.152344 118.265625 519.050781 C 166.074219 466.496094 237.550781 440.808594 307.902344 451.207031 C 326.523438 453.960938 344.828125 459.121094 362.078125 466.675781 C 377.976562 473.636719 392.832031 482.695312 408.007812 491.054688 C 422.882812 499.246094 438.3125 507 454.929688 510.917969 C 471.699219 514.875 488.390625 513.648438 505.097656 509.992188 C 523.542969 505.953125 541.757812 499.695312 560.796875 499.210938 C 578.621094 498.757812 595.800781 504.296875 610.957031 513.46875 C 643.230469 533 663.082031 566.070312 681.644531 597.796875 C 720.59375 664.386719 764.574219 727.746094 814.28125 786.777344 C 820.445312 794.097656 826.695312 801.347656 833.019531 808.539062 C 833.855469 809.492188 835.242188 808.09375 834.414062 807.144531 C 782.066406 747.609375 735.09375 683.398438 694.320312 615.40625 C 675.214844 583.546875 657.929688 548.890625 629.230469 524.332031 C 616.839844 513.726562 602.492188 505.085938 586.738281 500.566406 C 569.835938 495.714844 552.65625 496.925781 535.648438 500.613281 C 516.945312 504.667969 498.484375 511.082031 479.191406 511.558594 C 460.933594 512.011719 443.417969 506.421875 427.074219 498.695312 C 411.046875 491.117188 395.976562 481.71875 380.332031 473.40625 C 364.53125 465.011719 348.023438 458.253906 330.675781 453.792969 C 262.742188 436.308594 189.644531 453.101562 136.386719 498.71875 C 110.617188 520.789062 90.945312 548.402344 77.453125 579.457031 C 62.070312 614.851562 52.664062 653.488281 29.332031 684.90625 C 23.753906 692.417969 17.46875 699.355469 10.464844 705.558594 C 9.511719 706.410156 10.910156 707.800781 11.855469 706.960938 Z M 11.855469 706.960938 " fill-opacity="0.15" fill-rule="nonzero"/><path fill="#d9d9d9" d="M 12.007812 612.214844 C 33.769531 581.585938 55.433594 550.886719 77.300781 520.335938 C 96.953125 492.878906 117.933594 465.492188 146.242188 446.398438 C 205.71875 406.273438 281.652344 406 348.761719 424.097656 C 383.128906 433.363281 415.964844 448.011719 450.972656 454.917969 C 468.46875 458.371094 486.195312 459.054688 503.945312 460.128906 C 513.488281 460.710938 523.046875 461.433594 532.480469 463.039062 C 536.847656 463.777344 541.1875 464.699219 545.46875 465.847656 C 548.359375 466.617188 551.160156 467.789062 554.183594 467.046875 C 558.769531 465.921875 561.90625 461.191406 561.109375 456.542969 C 560.527344 453.125 558.242188 449.738281 556.988281 446.566406 C 555.4375 442.628906 554.152344 438.589844 553.199219 434.464844 C 549.789062 419.710938 551.027344 404.40625 556.25 390.230469 C 566.589844 362.179688 590.527344 340.054688 617.804688 328.710938 C 649.757812 315.414062 685.265625 314.542969 719.277344 317.511719 C 755.945312 320.703125 792.414062 327.515625 827.949219 337.050781 C 836.832031 339.433594 845.660156 342.011719 854.441406 344.75 C 855.65625 345.125 856.175781 343.226562 854.964844 342.847656 C 819.316406 331.726562 782.789062 323.554688 745.78125 318.546875 C 712.253906 314.007812 677.597656 311.390625 644.234375 318.515625 C 614.734375 324.808594 587.527344 339.40625 568.941406 363.574219 C 551.667969 386.035156 544.308594 414.78125 553.308594 442.179688 C 555.386719 448.492188 564.761719 462.445312 553.65625 465.152344 C 549.628906 466.132812 543.898438 463.347656 539.902344 462.476562 C 535.519531 461.519531 531.097656 460.78125 526.652344 460.191406 C 508.390625 457.777344 489.921875 457.863281 471.605469 456.007812 C 434.976562 452.296875 400.925781 438.007812 366.089844 427.113281 C 300.375 406.554688 226.585938 401.375 163.675781 433.792969 C 134.285156 448.941406 111.289062 472.105469 91.289062 498.074219 C 68.8125 527.25 48.164062 557.925781 26.839844 587.945312 C 21.328125 595.703125 15.8125 603.464844 10.300781 611.21875 C 9.570312 612.253906 11.277344 613.238281 12.007812 612.214844 Z M 12.007812 612.214844 " fill-opacity="0.15" fill-rule="nonzero"/><path fill="#d9d9d9" d="M 441.710938 415.085938 C 448.46875 416.238281 455.3125 414.90625 461.777344 412.898438 C 468.648438 410.761719 475.324219 407.964844 482.039062 405.394531 C 489.035156 402.714844 496.03125 400.035156 503.023438 397.359375 C 506.335938 396.09375 509.65625 394.847656 512.960938 393.554688 C 515.5 392.558594 518.046875 391.472656 520.3125 389.925781 C 522.441406 388.476562 524.355469 386.601562 525.417969 384.214844 C 526.5625 381.625 526.6875 378.765625 525.875 376.058594 C 524.136719 370.289062 519.300781 365.875 514.828125 362.136719 C 505.394531 354.257812 495.066406 345.945312 482.488281 344.230469 C 476.347656 343.398438 470.191406 344.300781 464.121094 345.214844 C 458.109375 346.121094 451.902344 347.144531 445.828125 346.195312 C 442.742188 345.714844 439.753906 344.722656 437.027344 343.183594 C 436.320312 342.78125 435.65625 342.324219 434.96875 341.890625 C 434.265625 341.449219 433.339844 341.507812 432.527344 341.457031 C 430.824219 341.359375 429.117188 341.359375 427.410156 341.453125 C 420.628906 341.835938 414.09375 343.753906 408.125 346.988281 C 401.871094 350.378906 396.089844 354.671875 390.207031 358.652344 C 387.097656 360.753906 383.988281 362.859375 380.886719 364.960938 C 378.28125 366.722656 375.667969 368.484375 373.246094 370.496094 C 368.605469 374.347656 364.832031 379.332031 364.253906 385.503906 C 363.738281 391 366.457031 396.21875 371.507812 398.570312 C 376.179688 400.746094 381.640625 400.632812 386.597656 399.648438 C 393.117188 398.363281 399.296875 395.335938 406.027344 395.175781 C 409.035156 395.105469 411.976562 395.703125 414.660156 397.0625 C 416.96875 398.226562 419.03125 399.800781 420.976562 401.492188 C 424.980469 404.976562 428.589844 408.988281 433.132812 411.804688 C 435.75 413.433594 438.667969 414.535156 441.710938 415.085938 C 442.953125 415.308594 443.484375 413.410156 442.234375 413.1875 C 439.234375 412.640625 436.414062 411.5625 433.835938 409.925781 C 431.671875 408.546875 429.71875 406.863281 427.832031 405.132812 C 424.085938 401.703125 420.484375 397.898438 415.9375 395.507812 C 413.421875 394.191406 410.699219 393.414062 407.863281 393.242188 C 404.566406 393.039062 401.261719 393.628906 398.078125 394.4375 C 392.40625 395.878906 386.910156 398.164062 380.984375 398.332031 C 376.375 398.460938 371.183594 397.433594 368.246094 393.535156 C 364.792969 388.945312 365.992188 382.480469 368.957031 377.976562 C 372.3125 372.867188 377.6875 369.5 382.648438 366.140625 C 388.578125 362.125 394.5 358.105469 400.433594 354.105469 C 405.980469 350.367188 411.65625 346.804688 418.152344 344.976562 C 421.308594 344.085938 424.558594 343.5625 427.832031 343.410156 C 429.445312 343.332031 431.054688 343.34375 432.667969 343.441406 C 433.011719 343.460938 433.617188 343.398438 433.945312 343.535156 C 434.144531 343.621094 434.488281 343.945312 434.695312 344.078125 C 435.40625 344.535156 436.132812 344.960938 436.882812 345.351562 C 447.984375 351.113281 460.214844 347.304688 471.890625 346.15625 C 474.847656 345.863281 477.835938 345.746094 480.796875 346.011719 C 483.769531 346.28125 486.699219 346.988281 489.507812 348 C 495.164062 350.023438 500.304688 353.300781 505.105469 356.875 C 507.601562 358.734375 510.019531 360.699219 512.414062 362.691406 C 514.679688 364.574219 516.929688 366.476562 518.9375 368.632812 C 522.535156 372.515625 526.148438 378.132812 523.578125 383.523438 C 521.332031 388.234375 515.871094 390.351562 511.304688 392.097656 C 504.550781 394.683594 497.804688 397.265625 491.050781 399.851562 C 484.351562 402.414062 477.644531 404.984375 470.945312 407.550781 C 464.679688 409.949219 458.292969 412.359375 451.605469 413.25 C 448.503906 413.664062 445.324219 413.722656 442.230469 413.195312 C 440.996094 412.976562 440.464844 414.871094 441.710938 415.085938 Z M 441.710938 415.085938 " fill-opacity="0.15" fill-rule="nonzero"/></svg>