<svg width="200" height="200" viewBox="0 0 200 200" fill="none" xmlns="http://www.w3.org/2000/svg">
<path d="M56.8629 156.179C57.1488 166.811 58.2176 169.492 71.5191 170.447V178.546H24.0836V170.447C37.3852 169.492 38.8461 166.811 39.132 156.179L39.1234 90.0422C16.9578 89.2922 13.3031 93.9875 9.94766 109.25H0C1.92812 100.51 3.8375 92.168 3.8375 80.1903H92.1484C92.1484 92.1684 93.1129 100.51 95.041 109.25H85.293C81.9375 93.9875 79.0281 89.2922 56.8625 90.0418L56.8629 156.179ZM149.654 154.166C149.98 162.684 154.036 168.063 169.187 168.828V178.546H110.29V168.828C125.441 168.062 129.133 162.684 129.458 154.166L129.448 34.5235C100.935 33.8446 93.0961 37.0879 90.6695 56.4024H79.1031C81.5801 46.4465 81.1969 35.0977 81.1969 21.4547H196.284C196.284 35.0981 197.523 46.4469 200 56.402H187.477C183.165 39.0176 174.902 33.6692 149.654 34.5231V154.166Z" fill="black"/>
</svg>
