<svg width="70" height="70" viewBox="0 0 70 70" fill="none" xmlns="http://www.w3.org/2000/svg">
<path d="M35 46.6668C38.0942 46.6668 41.0617 45.4377 43.2496 43.2497C45.4375 41.0618 46.6667 38.0944 46.6667 35.0002C46.6667 31.906 45.4375 28.9385 43.2496 26.7506C41.0617 24.5627 38.0942 23.3335 35 23.3335C31.9058 23.3335 28.9384 24.5627 26.7505 26.7506C24.5625 28.9385 23.3334 31.906 23.3334 35.0002C23.3334 38.0944 24.5625 41.0618 26.7505 43.2497C28.9384 45.4377 31.9058 46.6668 35 46.6668Z" stroke="#FCFAF8" stroke-width="3.5" stroke-linecap="round" stroke-linejoin="round"/>
<path d="M8.75 46.6667V23.3333C8.75 19.4656 10.2865 15.7563 13.0214 13.0214C15.7563 10.2865 19.4656 8.75 23.3333 8.75H46.6667C50.5344 8.75 54.2437 10.2865 56.9786 13.0214C59.7135 15.7563 61.25 19.4656 61.25 23.3333V46.6667C61.25 50.5344 59.7135 54.2437 56.9786 56.9786C54.2437 59.7135 50.5344 61.25 46.6667 61.25H23.3333C19.4656 61.25 15.7563 59.7135 13.0214 56.9786C10.2865 54.2437 8.75 50.5344 8.75 46.6667Z" stroke="#FCFAF8" stroke-width="3.5"/>
<path d="M51.0417 18.9877L51.0709 18.9556" stroke="#FCFAF8" stroke-width="3.5" stroke-linecap="round" stroke-linejoin="round"/>
</svg>
