<svg width="70" height="70" viewBox="0 0 70 70" fill="none" xmlns="http://www.w3.org/2000/svg">
<path d="M35 8.75C20.5275 8.75 8.75 20.5275 8.75 35C8.75 49.4725 20.5275 61.25 35 61.25C49.4725 61.25 61.25 49.4725 61.25 35C61.25 20.5275 49.4725 8.75 35 8.75ZM35 13.125C47.1078 13.125 56.875 22.8922 56.875 35C56.879 40.2364 55.0006 45.2998 51.5826 49.2668C48.1645 53.2338 43.4345 55.8401 38.255 56.6103V41.3787H44.485L45.4628 35.0503H38.255V31.5941C38.255 28.9691 39.1191 26.635 41.5756 26.635H45.5241V21.1138C44.8306 21.0197 43.3628 20.8162 40.5891 20.8162C34.7966 20.8162 31.4016 23.8744 31.4016 30.8438V35.0503H25.4472V41.3787H31.4016V56.5556C26.2932 55.7148 21.6502 53.0851 18.3021 49.1364C14.9541 45.1876 13.1191 40.1771 13.125 35C13.125 22.8922 22.8922 13.125 35 13.125Z" fill="#FCFAF8"/>
</svg>
